<?xml version="1.0" encoding="UTF-8" standalone="no"?>
<svg
   xmlns:dc="http://purl.org/dc/elements/1.1/"
   xmlns:cc="http://creativecommons.org/ns#"
   xmlns:rdf="http://www.w3.org/1999/02/22-rdf-syntax-ns#"
   xmlns:svg="http://www.w3.org/2000/svg"
   xmlns="http://www.w3.org/2000/svg"
   xmlns:sodipodi="http://sodipodi.sourceforge.net/DTD/sodipodi-0.dtd"
   xmlns:inkscape="http://www.inkscape.org/namespaces/inkscape"
   width="300mm"
   height="300mm"
   viewBox="0 0 300 300"
   version="1.1"
   id="svg8"
   inkscape:version="1.0.2 (e86c8708, 2021-01-15)"
   sodipodi:docname="bo-bomb.svg">
  <defs
     id="defs2" />
  <sodipodi:namedview
     id="base"
     pagecolor="#ffffff"
     bordercolor="#666666"
     borderopacity="1.0"
     inkscape:pageopacity="0.0"
     inkscape:pageshadow="2"
     inkscape:zoom="0.35"
     inkscape:cx="105.71428"
     inkscape:cy="445.71429"
     inkscape:document-units="mm"
     inkscape:current-layer="layer1"
     inkscape:document-rotation="0"
     showgrid="false"
     inkscape:window-width="1920"
     inkscape:window-height="1027"
     inkscape:window-x="0"
     inkscape:window-y="25"
     inkscape:window-maximized="0"
     showborder="true" />
  <metadata
     id="metadata5">
    <rdf:RDF>
      <cc:Work
         rdf:about="">
        <dc:format>image/svg+xml</dc:format>
        <dc:type
           rdf:resource="http://purl.org/dc/dcmitype/StillImage" />
        <dc:title />
      </cc:Work>
    </rdf:RDF>
  </metadata>
  <g
     inkscape:label="Layer 1"
     inkscape:groupmode="layer"
     id="layer1">
    <path
       style="fill:none;fill-opacity:1;stroke:#000000;stroke-width:0.175859;stroke-opacity:1"
       d="m 141.77491,271.15872 c -9.00013,-0.57344 -13.87446,-1.86247 -19.13964,-5.06153 -1.82057,-1.10616 -2.37563,-1.19603 -5.64903,-0.91447 -1.40655,0.12084 -5.73441,0.26021 -9.61745,0.30941 -19.962528,0.25294 -28.638618,-1.51388 -34.458088,-7.01701 -3.358055,-3.17555 -5.487841,-7.37001 -6.60651,-13.01103 -0.555067,-2.79899 -0.552229,-6.84102 0.0067,-9.46713 1.337615,-6.2855 5.466809,-11.87434 11.72318,-15.86738 2.67981,-1.71035 2.77625,-2.38089 0.83299,-5.79191 -4.93013,-8.65386 -7.763771,-17.45913 -8.762744,-27.22949 -0.371069,-3.62912 -0.274641,-12.09719 0.174214,-15.29973 2.51493,-17.94368 11.13871,-33.25579 24.99665,-44.3832 7.406388,-5.94709 16.367518,-10.38421 25.990028,-12.86908 2.09071,-0.53987 2.8235,-0.9321 3.31561,-1.77469 0.17756,-0.30404 0.56518,-1.68865 0.86138,-3.07694 2.29221,-10.743345 5.7359,-13.982641 14.48625,-13.62643 1.45084,0.05911 3.42925,0.224398 4.39646,0.367442 0.96721,0.1431 2.18196,0.262568 2.69943,0.265615 1.43056,0.0091 1.91223,-0.562627 2.74262,-3.251993 1.57256,-5.092965 3.07305,-8.388462 5.42169,-11.90744 1.69402,-2.538176 3.11127,-4.185421 5.48728,-6.377695 3.68988,-3.404585 3.78484,-3.507102 3.78484,-4.087693 0,-0.876791 -0.86442,-1.438163 -4.76673,-3.095708 -3.96371,-1.683631 -4.58003,-2.009059 -4.98998,-2.634697 -0.3759,-0.573686 -0.10503,-1.155656 0.85361,-1.834113 0.39911,-0.282442 3.12906,-1.891335 6.06655,-3.575313 2.9375,-1.683977 5.68716,-3.364977 6.11033,-3.735539 0.57847,-0.506521 0.83328,-0.899335 1.02666,-1.582717 0.14155,-0.499945 0.50058,-3.83704 0.79801,-7.415763 0.29743,-3.578723 0.62039,-6.803762 0.71768,-7.166729 0.10128,-0.377521 0.36759,-0.784901 0.62258,-0.951979 0.42037,-0.275434 0.48754,-0.271559 1.18015,0.06784 0.40392,0.197956 2.95023,2.355374 5.65845,4.794237 2.70824,2.438861 5.26922,4.637026 5.69105,4.884803 1.18431,0.695678 2.01498,0.601599 8.87977,-1.00552 7.11567,-1.665861 7.66164,-1.754566 8.2853,-1.345929 0.87747,0.574941 0.80503,0.80889 -2.67104,8.626833 -2.72589,6.130694 -2.9625,6.908138 -2.51507,8.263848 0.11668,0.353842 1.68051,3.073131 3.47491,6.042866 3.14842,5.210521 4.08545,6.903093 4.08909,7.38592 0.001,0.125371 -0.1925,0.422069 -0.42992,0.659479 -0.57324,0.573237 -0.88289,0.566021 -7.84018,-0.182853 -5.88919,-0.633925 -7.91487,-0.73861 -8.67791,-0.448505 -0.76307,0.290123 -1.81402,1.374808 -5.63047,5.811189 -4.69589,5.458715 -5.21857,5.979203 -6.00449,5.979203 -1.01552,0 -1.15115,-0.368931 -2.54689,-6.928615 -1.10078,-5.173461 -1.43486,-5.909076 -2.68349,-5.909076 -1.33146,0 -5.21845,3.077902 -7.75891,6.143869 -2.8844,3.481073 -5.06311,7.621685 -6.34386,12.056539 -0.75318,2.607899 -0.62097,3.839332 0.49042,4.56752 0.22068,0.144658 2.65815,0.853397 5.41662,1.575154 5.66826,1.48306 7.45993,2.08777 9.11512,3.07639 2.55171,1.52412 3.92381,3.46141 4.80563,6.78506 0.34209,1.28952 0.3749,1.89209 0.39336,7.22309 0.0246,7.0714 -0.14998,6.51398 2.73974,8.75188 4.35235,3.37053 6.80744,5.62717 10.23441,9.40706 1.25677,1.38625 2.54545,2.64459 2.86371,2.79636 0.82413,0.39297 1.4917,0.0742 2.24444,-1.07181 0.32645,-0.497 3.50394,-6.36402 7.06103,-13.03785 3.55715,-6.67384 6.77416,-12.6629 7.1489,-13.309 0.69027,-1.19009 1.39081,-1.90282 1.87023,-1.90282 0.58467,0 1.40908,1.27538 2.79295,4.32068 9.57386,21.06755 13.20843,28.95058 13.63705,29.57727 0.965,1.41098 -0.52972,1.06837 22.38791,5.1316 13.63225,2.41696 15.3211,2.75648 15.83546,3.18337 0.36736,0.30486 0.31474,1.17485 -0.10696,1.76696 -0.19937,0.27999 -6.25164,5.89952 -13.44938,12.4878 -14.88882,13.62805 -14.11367,12.7787 -13.91633,15.24834 0.0594,0.74435 1.1023,8.47562 2.31733,17.18063 1.21505,8.705 2.25399,16.38124 2.30881,17.0583 0.17433,2.15359 -0.42239,2.75824 -2.04536,2.07255 -0.4576,-0.19329 -7.23294,-3.97585 -15.05642,-8.40565 -17.45828,-9.88522 -16.35981,-9.3048 -17.62391,-9.31232 -1.26333,-0.009 -3.10168,0.84129 -3.88799,1.79519 -0.30612,0.37139 -1.02411,1.90192 -1.70253,3.62939 -3.48294,8.8685 -7.96728,15.88861 -14.55815,22.79043 -1.42939,1.49683 -2.71908,2.95396 -2.86601,3.23805 -0.41904,0.81036 -0.20078,1.7304 0.67898,2.86186 3.58753,4.61385 4.9076,7.26383 5.7079,11.45827 0.39187,2.05389 0.39138,6.08619 -0.001,8.29053 -1.17251,6.58649 -5.04376,12.26027 -9.84361,14.42694 -3.20018,1.4446 -7.91267,2.53064 -14.21855,3.27677 -2.72402,0.32233 -20.01473,0.48821 -24.05485,0.23079 z m -8.24088,-87.40432 c 2.86582,-1.46203 5.3352,-6.08566 6.49897,-12.16847 0.33286,-1.73972 0.35991,-2.38193 0.28962,-6.87145 -0.0738,-4.71304 -0.10016,-5.03215 -0.54699,-6.60422 -1.99581,-7.02288 -5.88638,-9.04915 -9.59787,-4.99873 -1.76451,1.92566 -3.20828,5.08383 -4.16907,9.11965 -0.49582,2.0827 -0.50069,2.15746 -0.49713,7.64284 0.003,5.51285 0.006,5.548 0.49231,7.29813 0.92634,3.33327 2.5098,5.90757 4.06962,6.61612 0.98523,0.44751 2.54689,0.43222 3.46054,-0.034 z m -33.987128,-0.69611 c 0.946578,-0.42948 2.721998,-2.22913 3.511008,-3.55884 1.51054,-2.5457 2.76234,-6.36057 3.27824,-9.99048 0.38976,-2.7423 0.35009,-7.55516 -0.0832,-10.08932 -0.76798,-4.49226 -2.41747,-7.71288 -4.45555,-8.69953 -1.01699,-0.4923 -2.560358,-0.49262 -3.576478,-6.3e-4 -2.54823,1.23356 -5.40467,6.54374 -6.28967,11.69263 -0.90084,5.24104 -0.97522,6.97479 -0.44915,10.4699 0.64391,4.27802 1.70717,7.19675 3.24466,8.90682 1.42398,1.58381 3.13454,2.03434 4.8201,1.26955 z"
       id="path32" />
  </g>
</svg>
