<?xml version="1.0" encoding="UTF-8" standalone="no"?>
<svg
   xmlns:dc="http://purl.org/dc/elements/1.1/"
   xmlns:cc="http://creativecommons.org/ns#"
   xmlns:rdf="http://www.w3.org/1999/02/22-rdf-syntax-ns#"
   xmlns:svg="http://www.w3.org/2000/svg"
   xmlns="http://www.w3.org/2000/svg"
   xmlns:sodipodi="http://sodipodi.sourceforge.net/DTD/sodipodi-0.dtd"
   xmlns:inkscape="http://www.inkscape.org/namespaces/inkscape"
   width="300mm"
   height="300mm"
   viewBox="0 0 300 300"
   version="1.1"
   id="svg8"
   inkscape:version="1.0.2 (e86c8708, 2021-01-15)"
   sodipodi:docname="paper-mario.svg">
  <defs
     id="defs2" />
  <sodipodi:namedview
     id="base"
     pagecolor="#ffffff"
     bordercolor="#666666"
     borderopacity="1.0"
     inkscape:pageopacity="0.0"
     inkscape:pageshadow="2"
     inkscape:zoom="0.24748737"
     inkscape:cx="593.08782"
     inkscape:cy="92.515971"
     inkscape:document-units="mm"
     inkscape:current-layer="layer1"
     inkscape:document-rotation="0"
     showgrid="false"
     inkscape:window-width="1920"
     inkscape:window-height="1027"
     inkscape:window-x="0"
     inkscape:window-y="25"
     inkscape:window-maximized="0" />
  <metadata
     id="metadata5">
    <rdf:RDF>
      <cc:Work
         rdf:about="">
        <dc:format>image/svg+xml</dc:format>
        <dc:type
           rdf:resource="http://purl.org/dc/dcmitype/StillImage" />
        <dc:title></dc:title>
      </cc:Work>
    </rdf:RDF>
  </metadata>
  <g
     inkscape:label="Layer 1"
     inkscape:groupmode="layer"
     id="layer1">
    <path
       style="fill:#000000;stroke-width:0.141709"
       d="m 155.17936,292.84049 c -0.31176,-0.0682 -1.2683,-0.18707 -2.12564,-0.26417 -2.71917,-0.24457 -5.25761,-0.59676 -6.66034,-0.92406 -0.54558,-0.12731 -1.24704,-0.2865 -1.5588,-0.35375 -3.04153,-0.65618 -6.0477,-2.42863 -7.53985,-4.44556 -0.73397,-0.99213 -1.05423,-1.66964 -1.31575,-2.78357 -0.10064,-0.42867 -0.24108,-1.02182 -0.3121,-1.31811 -0.15846,-0.66119 -0.3596,-0.7473 -1.29534,-0.55458 -0.40259,0.0829 -1.49722,0.25148 -2.4325,0.3746 -2.30813,0.30383 -10.98361,0.31595 -13.20952,0.0184 -0.84053,-0.11235 -1.8152,-0.23797 -2.16593,-0.27917 -1.77597,-0.20865 -2.86798,-0.37183 -3.89701,-0.58234 -2.26436,-0.46322 -2.1812,-0.44342 -3.61359,-0.86047 -0.63072,-0.18364 -2.88539,-1.40746 -3.61358,-1.96141 -2.03818,-1.55053 -3.3479,-3.16083 -4.04164,-4.96918 -0.0598,-0.15588 -0.21428,-0.92111 -0.3433,-1.70051 -0.129,-0.7794 -0.29519,-1.77166 -0.3693,-2.20502 -0.0741,-0.43336 -0.13488,-1.03917 -0.13507,-1.34624 -2.8e-4,-0.42111 -0.10742,-0.68019 -0.43615,-1.05429 -0.679132,-0.77288 -1.440512,-1.83346 -1.983762,-2.76333 -0.66189,-1.13298 -1.54761,-2.99255 -1.54761,-3.24924 0,-0.11325 -0.0638,-0.24532 -0.14171,-0.29349 -0.0779,-0.0482 -0.14171,-0.27136 -0.14171,-0.49599 0,-0.22462 -0.0638,-0.44781 -0.14171,-0.49598 -0.0779,-0.0481 -0.14171,-0.24744 -0.14171,-0.44281 0,-0.19537 -0.0616,-0.47031 -0.13686,-0.61095 -0.0753,-0.14065 -0.2044,-0.63066 -0.28695,-1.08892 -0.7298,-4.0515 -0.62448,-8.69748 0.27107,-11.95739 0.0964,-0.35073 0.24137,-0.89277 0.32227,-1.20453 0.23618,-0.9102 0.89205,-2.63093 1.37734,-3.61358 1.13054,-2.28919 2.4181,-4.00904 4.633412,-6.18904 1.04344,-1.0268 1.89715,-1.92952 1.89715,-2.00605 0,-0.0765 -0.33479,-0.18364 -0.74397,-0.238 -1.50546,-0.19999 -3.362412,-0.79367 -5.136962,-1.6423 -2.34715,-1.12245 -3.8083,-2.16821 -5.44421,-3.89644 -1.02691,-1.08485 -2.42066,-2.98954 -2.42066,-3.30804 0,-0.0683 -0.16703,-0.4649 -0.37117,-0.88127 -0.66783,-1.36209 -0.76357,-1.73636 -1.19035,-4.65343 -0.16737,-1.14395 -0.21256,-1.24629 -0.9073,-2.05478 -0.77216,-0.89859 -1.49904,-1.84971 -1.49904,-1.96148 0,-0.0367 -0.20901,-0.4395 -0.46447,-0.89514 -0.49765,-0.88759 -1.38196,-3.01719 -1.6386,-3.94605 -0.17255,-0.6245 -0.47951,-2.08143 -0.71837,-3.40955 -0.30756,-1.71009 -0.0775,-5.7344 0.42139,-7.37042 0.073,-0.23934 0.13271,-0.55367 0.13271,-0.69848 0,-0.28291 0.10678,-0.65186 0.5742,-1.98393 0.16409,-0.46764 0.33663,-0.97707 0.38342,-1.13206 0.0468,-0.15498 0.42472,-0.97098 0.83984,-1.8133 1.6321,-3.31177 4.45126,-6.87693 7.41364,-9.37541 0.96748,-0.81599 3.64159,-2.8675 4.32031,-3.31444 0.0789,-0.052 0.33285,-0.47713 0.56423,-0.94477 0.69677,-1.40818 2.309382,-3.88689 3.430002,-5.27214 2.02419,-2.50224 3.82736,-3.84081 6.42796,-4.7718 0.35334,-0.12649 0.76783,-0.23247 0.92111,-0.23551 0.15892,-0.003 0.46885,-0.26197 0.72121,-0.60227 0.39094,-0.52716 3.01137,-3.56546 4.42806,-5.13415 2.87056,-3.17858 5.1702,-5.46514 8.23198,-8.18517 0.52133,-0.46315 0.71641,-0.7233 0.61695,-0.82275 -0.08,-0.08 -0.68073,-0.23855 -1.33497,-0.35233 -2.43667,-0.42378 -4.83419,-1.42109 -6.26997,-2.60813 -0.46517,-0.38458 -0.78592,-0.54837 -0.99196,-0.50652 -0.16748,0.034 -0.65524,0.13966 -1.0839,0.23479 -1.02254,0.22692 -5.03968,0.22274 -6.30607,-0.007 -2.58574,-0.46821 -4.58227,-1.25352 -6.38195,-2.5103 -1.428942,-0.99787 -3.249142,-3.08976 -3.993092,-4.58913 -0.57104,-1.15087 -1.03255,-2.29342 -1.03255,-2.55623 0,-0.53765 -0.32485,-0.92973 -1.10633,-1.33533 -0.45972,-0.23859 -1.23529,-0.85456 -1.80299,-1.43194 -0.92738,-0.94318 -1.16574,-1.31881 -2.21503,-3.49047 -0.0654,-0.13535 -0.12092,-0.39042 -0.1234,-0.56684 -0.007,-0.49761 -0.26969,-0.72712 -1.34174,-1.17222 -1.63368,-0.67829 -4.23259,-2.08571 -4.68347,-2.5363 -0.0853,-0.0852 -0.38764,-0.31428 -0.67187,-0.50898 -0.90147,-0.6175 -3.70282,-3.56027 -4.80019,-5.0425 -0.87258,-1.17861 -2.36324,-3.87116 -2.81794,-5.08999 -0.0582,-0.15588 -0.20055,-0.50661 -0.31644,-0.7794 -0.11588,-0.27279 -0.28963,-0.75106 -0.38612,-1.06282 -0.0965,-0.31176 -0.23135,-0.67756 -0.29972,-0.8129 -0.0684,-0.13538 -0.12432,-0.37871 -0.12432,-0.54077 0,-0.16206 -0.0616,-0.40974 -0.13686,-0.55039 -0.34699,-0.64835 -0.77449,-4.23216 -0.77023,-6.45683 0.005,-2.72125 0.51456,-6.53203 1.06629,-7.97781 0.0683,-0.17903 0.12422,-0.47817 0.12422,-0.66476 0,-0.18658 0.0638,-0.37865 0.14171,-0.42682 0.0779,-0.0482 0.14171,-0.19787 0.14171,-0.33266 0,-0.3156 1.233,-3.214482 1.88502,-4.431842 1.3167,-2.458363 2.79422,-4.387363 4.883,-6.375103 1.19409,-1.13633 3.29483,-2.81876 3.51961,-2.81876 0.0581,0 0.20636,-0.0902 0.32941,-0.20055 0.54212,-0.48596 4.23193,-2.22438 5.60867,-2.64248 0.31176,-0.0947 0.69437,-0.22227 0.85026,-0.28354 0.15588,-0.0613 0.44284,-0.14587 0.63769,-0.18801 0.19485,-0.0421 0.76877,-0.18185 1.27538,-0.31047 0.92702,-0.23536 2.19641,-0.41412 4.04918,-0.57023 l 1.00244,-0.0845 0.1728,-1.4383 c 0.095,-0.79106 0.20301,-1.91656 0.23992,-2.50111 0.0369,-0.58455 0.137492,-1.33163 0.223482,-1.66018 0.086,-0.32854 0.12133,-0.68861 0.0785,-0.80015 -0.085,-0.22149 -1.075672,-0.40983 -3.499002,-0.6652 -4.46769,-0.47081 -5.89426,-0.64833 -6.06678,-0.75496 -0.0698,-0.0431 -0.53479,-0.11897 -1.03334,-0.16853 -0.49855,-0.0496 -0.95788,-0.12133 -1.02074,-0.15949 -0.0629,-0.0382 -0.47736,-0.12966 -0.92111,-0.20333 -1.62744,-0.27017 -2.99479,-0.57163 -3.71187,-0.81835 -0.19484,-0.067 -0.64123,-0.20211 -0.99196,-0.30016 -0.88229,-0.24666 -2.84541,-0.85659 -3.18846,-0.99063 -0.15588,-0.0609 -0.50661,-0.18843 -0.7794,-0.28337 -1.35279,-0.47084 -3.56682,-1.57938 -5.03068,-2.51881 -1.50513,-0.96592 -3.42421,-2.98378 -4.09033,-4.30085 -0.74517,-1.4734 -0.83614,-1.94894 -0.89899,-4.69952 -0.0496,-2.17264 -0.0271,-2.45817 0.25694,-3.25931 1.14357,-3.22509 3.04046,-5.781543 5.66866,-7.639701 2.23204,-1.578064 6.03806,-3.297829 9.33764,-4.219244 0.35073,-0.09794 0.92466,-0.260368 1.27539,-0.360942 2.40206,-0.688817 6.44337,-1.521821 9.56538,-1.97164 0.85733,-0.123524 2.22837,-0.327553 3.04674,-0.453391 0.81837,-0.125837 2.061872,-0.277539 2.763332,-0.337119 0.70146,-0.05958 1.40293,-0.143003 1.5588,-0.18539 0.15588,-0.04237 0.45879,-0.114007 0.67312,-0.159157 0.32593,-0.06865 0.3897,-0.155612 0.3897,-0.531411 0,-0.247129 0.0632,-0.803895 0.14053,-1.237255 0.0773,-0.433365 0.21036,-1.329971 0.29571,-1.992463 0.39504,-3.06589 0.53287,-3.822026 1.04617,-5.739222 0.62696,-2.341713 0.7753,-2.833233 1.06924,-3.542735 0.19436,-0.469153 0.36249,-0.896986 0.54298,-1.381666 0.49923,-1.340603 2.58997,-5.234002 3.55756,-6.624908 0.82101,-1.180197 2.93816,-3.590027 4.42375,-5.035301 1.73361,-1.686559 2.37621,-2.223738 3.80354,-3.179581 0.50661,-0.339261 1.10566,-0.742783 1.33122,-0.896713 0.80073,-0.546456 3.2645,-1.825829 4.90398,-2.5465195 0.91275,-0.40123 2.93023,-1.100892 3.89701,-1.35148 0.31176,-0.08081 0.8538,-0.225759 1.20453,-0.322107 2.99853,-0.823743 6.8757,-1.087834 12.71933,-0.866361 2.24027,0.0849 4.5196,0.221372 5.06518,0.303259 1.81362,0.272216 2.54247,0.407967 3.47188,0.64665 0.50661,0.130101 1.17618,0.269195 1.48794,0.309096 0.31176,0.0399 0.62742,0.129785 0.70146,0.199739 0.074,0.06996 0.25336,0.127199 0.3985,0.127199 0.25064,0 1.40818,0.322363 2.01764,0.561897 0.15588,0.06126 0.85735,0.291834 1.55881,0.512381 0.70146,0.220547 1.33596,0.4516725 1.41,0.5136135 0.074,0.06194 0.25028,0.11262 0.39163,0.11262 0.14134,0 0.36772,0.0596 0.50307,0.132441 0.13533,0.07285 0.85187,0.368044 1.5923,0.656001 0.74043,0.287952 1.61996,0.644448 1.95453,0.792219 0.33456,0.14777 0.8766,0.375574 1.20452,0.506233 0.32793,0.130658 1.68474,0.790306 3.01512,1.465883 2.16134,1.097539 2.87931,1.47855 4.57122,2.425866 2.40741,1.347929 8.57736,5.690901 10.15796,7.150089 0.15656,0.144535 0.95367,0.83212 1.77137,1.527964 3.0359,2.583518 9.14806,8.930768 11.87099,12.327564 0.56731,0.707702 1.164,1.446158 1.32601,1.641007 0.51157,0.615344 3.03715,4.01409 3.42233,4.605551 0.20303,0.311759 0.88277,1.327888 1.51052,2.258059 0.62776,0.930172 1.14137,1.71967 1.14137,1.75444 0,0.03476 0.22319,0.373888 0.49598,0.753592 0.27279,0.379704 0.49599,0.712528 0.49599,0.739602 0,0.0271 0.34205,0.616801 0.76013,1.310486 1.91514,3.177715 4.1773,7.441625 5.3304,10.047225 0.17246,0.3897 0.40821,0.89985 0.52387,1.13367 0.11568,0.23382 0.39405,0.88289 0.61861,1.44237 0.22456,0.55948 0.52976,1.29282 0.67823,1.62965 0.49923,1.13262 1.00102,2.44688 1.37967,3.61356 0.38827,1.19628 0.75215,1.74612 1.15561,1.74612 0.12782,0 0.42825,0.0632 0.66759,0.14033 0.23936,0.0772 1.06593,0.33488 1.83681,0.57268 4.01507,1.23855 7.55306,3.13198 10.65717,5.70345 3.98957,3.30497 7.01897,8.355 8.00958,13.35198 0.37994,1.91656 0.54754,7.397303 0.27084,8.856833 -0.0665,0.35073 -0.16165,0.89277 -0.21146,1.20453 -0.15043,0.941622 -0.97248,3.865202 -1.22471,4.355642 -0.0696,0.13533 -0.12656,0.31261 -0.12656,0.39394 0,0.0813 -0.45485,1.08164 -1.01076,2.22291 -0.83506,1.71436 -0.98285,2.11971 -0.85026,2.33204 0.0883,0.14135 0.16051,0.37477 0.16051,0.51872 0,0.14395 0.0456,0.30733 0.10134,0.36306 0.12677,0.12677 0.42355,1.18847 0.6187,2.21325 0.53642,2.81712 0.3914,8.33339 -0.2813,10.69905 -0.17103,0.60143 -0.36893,1.33914 -0.6083,2.26735 -0.0804,0.31176 -0.19503,0.69437 -0.25476,0.85025 -0.0597,0.15588 -0.21913,0.57038 -0.35423,0.92111 -0.9866,2.56113 -2.93745,5.89941 -4.76177,8.14828 -1.70063,2.09639 -4.12712,4.13913 -6.71753,5.65512 -1.47355,0.86238 -3.91438,2.02945 -5.20826,2.4903 -0.37046,0.13196 -0.71587,0.28225 -0.76759,0.33396 -0.0517,0.0517 -0.23007,0.094 -0.39635,0.094 -0.16627,0 -0.36289,0.0549 -0.43693,0.12192 -0.074,0.067 -0.48536,0.23615 -0.91403,0.37578 -1.14678,0.37355 -1.70051,0.63116 -1.70051,0.79115 0,0.078 -0.22007,0.48589 -0.48905,0.90639 -1.42556,2.22849 -3.72154,3.93407 -7.6115,5.65425 -1.12335,0.49676 -3.76998,1.21135 -5.78696,1.56246 -0.74043,0.1289 -1.66508,0.29318 -2.05478,0.36509 -0.3897,0.0719 -2.03176,0.21007 -3.64901,0.30704 -1.61726,0.097 -2.94047,0.21813 -2.94047,0.26922 0,0.0511 0.36667,0.31973 0.81483,0.59697 2.24702,1.39004 6.56513,5.49417 8.53798,8.11489 0.58455,0.77651 1.10111,1.44372 1.14792,1.48269 0.0468,0.039 0.26999,0.3514 0.49598,0.69431 0.22598,0.34291 0.47465,0.71992 0.55259,0.83779 0.0779,0.11787 0.57215,0.84578 1.09825,1.61755 0.5261,0.77179 0.95654,1.42981 0.95654,1.46224 0,0.0325 0.22319,0.40791 0.49598,0.83435 0.27279,0.42644 0.49598,0.8164 0.49598,0.86656 0,0.0502 0.11759,0.26048 0.26133,0.46736 0.29777,0.42863 0.92873,1.58377 2.25663,4.13145 1.00413,1.92648 1.23986,2.26735 1.56809,2.26735 1.01278,0 5.17362,2.06227 6.61941,3.28085 0.21712,0.183 0.61866,0.52404 0.89231,0.75786 1.06584,0.91072 2.30487,2.54405 2.951,3.89004 0.35726,0.74427 0.70537,1.46393 0.77356,1.59927 0.0682,0.13534 0.12398,0.36385 0.12398,0.5078 0,0.14394 0.0434,0.30513 0.0965,0.35818 0.0531,0.0531 0.21799,0.5579 0.36652,1.12187 0.22418,0.85129 0.2692,1.51517 0.26515,3.91004 l -0.005,2.88464 0.70462,0.84668 c 0.67148,0.80686 2.00968,2.69983 2.33548,3.30368 0.48387,0.8968 1.20127,2.34382 1.40513,2.83419 0.12961,0.31176 0.28868,0.69437 0.35348,0.85025 0.16262,0.39115 0.36472,1.01647 0.57251,1.77137 0.0965,0.35073 0.25785,0.92465 0.35848,1.27538 1.21372,4.23063 1.18221,11.23379 -0.073,16.22571 -0.098,0.3897 -0.2344,0.81928 -0.30313,0.95461 -0.0687,0.13535 -0.12498,0.354 -0.12498,0.48592 0,0.23979 -0.21838,1.00101 -0.44048,1.53537 -0.0648,0.15588 -0.31652,0.79357 -0.55942,1.41709 -0.78596,2.01766 -1.71271,3.58778 -3.37153,5.71218 -1.44271,1.84764 -2.25961,2.70451 -3.91856,4.11031 -0.70146,0.59443 -1.30726,1.11787 -1.34623,1.16323 -0.20854,0.2427 -2.65548,1.92456 -3.78762,2.60336 -1.32289,0.79318 -3.57062,1.9154 -4.99836,2.49553 -0.42867,0.17419 -0.97071,0.3972 -1.20453,0.49558 -0.23382,0.0984 -0.6802,0.25871 -0.99196,0.35628 -0.31176,0.0976 -0.74328,0.26671 -0.95892,0.37588 -0.32517,0.16461 -0.36749,0.24443 -0.24799,0.46771 0.0792,0.14809 0.14409,0.70993 0.14409,1.24856 0,0.7868 0.0537,1.02787 0.27293,1.22631 0.31995,0.28955 1.38063,1.85901 1.87395,2.77282 0.29121,0.53943 0.61679,1.29501 1.25177,2.90504 0.0615,0.15588 0.18945,0.57038 0.2844,0.92111 0.0949,0.35073 0.23589,0.79711 0.31323,0.99197 0.29531,0.74401 0.5822,2.65012 0.81869,5.43948 0.16636,1.96218 -0.0252,5.18359 -0.43506,7.31435 -0.21212,1.10281 -0.97547,3.8117 -1.2579,4.46384 -0.74874,1.7289 -1.62444,3.32671 -2.34428,4.27738 l -0.44897,0.59295 -0.0294,3.30406 c -0.0168,1.8819 -0.0955,3.51755 -0.18297,3.80004 -0.85673,2.76768 -2.25046,4.18657 -5.43044,5.52854 -1.58098,0.66718 -6.58714,1.06832 -12.54127,1.00495 -2.29923,-0.0245 -4.94565,-0.0514 -5.88094,-0.0597 -1.34877,-0.012 -1.83241,0.0386 -2.3382,0.24477 -0.35073,0.14297 -0.829,0.31148 -1.06282,0.37444 -0.23382,0.063 -0.77586,0.22071 -1.20453,0.35054 -0.84867,0.25704 -1.72753,0.43688 -3.04675,0.62342 -0.46764,0.0661 -0.9459,0.15614 -1.06282,0.20003 -0.11691,0.0439 -0.69083,0.11354 -1.27538,0.15479 -0.58455,0.0412 -1.54109,0.13726 -2.12564,0.21335 -1.30695,0.17017 -10.90834,0.16544 -11.69101,-0.006 z m 39.53688,-54.53264 c 2.25084,-0.2489 3.6719,-0.50225 5.24324,-0.93476 0.46764,-0.12871 1.04157,-0.28404 1.27539,-0.34515 0.7267,-0.18994 2.25523,-0.71198 2.51341,-0.85843 0.13534,-0.0768 0.31336,-0.13957 0.39561,-0.13957 0.47428,0 4.01481,-1.82184 5.54714,-2.85438 4.40003,-2.96489 7.11277,-6.64352 8.24437,-11.17979 0.79527,-3.18803 0.98983,-4.78691 0.99093,-8.14332 0.001,-3.61032 -0.21412,-5.15593 -1.06598,-7.6523 -1.32027,-3.86911 -4.95727,-8.67614 -8.51263,-11.25114 -0.68197,-0.49393 -1.23995,-0.96029 -1.23995,-1.03636 0,-0.33075 2.44948,0.18887 3.65319,0.77498 0.26036,0.12677 0.37033,0.11006 0.56684,-0.0861 0.36609,-0.36551 0.43197,-3.34345 0.0968,-4.37773 -0.87435,-2.69838 -3.55893,-5.09882 -7.29848,-6.52599 -3.44693,-1.3155 -6.44562,-1.80134 -11.1077,-1.79962 -3.85656,0.002 -6.23726,0.27953 -9.29271,1.08563 -6.42871,1.69605 -10.65889,5.35534 -11.13156,9.6293 -0.0673,0.60833 -0.0456,0.89838 0.0725,0.97139 0.0926,0.0572 0.6898,-0.0911 1.32703,-0.32979 2.1313,-0.79816 3.30036,-1.04803 4.99005,-1.06659 1.27203,-0.014 1.63556,0.0293 1.94419,0.23111 0.41688,0.27265 0.39176,0.67283 -0.0422,0.67283 -0.22946,0 -0.70651,0.17852 -2.54495,0.95238 -1.38957,0.58493 -3.64596,1.7949 -4.94724,2.6529 -1.64694,1.08595 -3.99998,3.27214 -5.17103,4.80437 -2.04649,2.67768 -3.3323,6.45183 -3.92687,11.52619 -0.16016,1.36686 -0.15301,1.48011 0.136,2.15191 0.16778,0.39002 0.30505,0.81286 0.30505,0.93965 0,0.26837 0.42155,1.6346 0.56853,1.84257 0.0551,0.0779 0.14229,0.36338 0.1938,0.63429 0.1026,0.53963 0.15626,0.6624 1.64305,3.7587 0.56138,1.1691 1.14363,2.43352 1.29387,2.8098 0.15026,0.37628 0.54646,1.10963 0.88047,1.62965 0.33402,0.52003 0.79153,1.39189 1.01671,1.93747 1.18832,2.87927 3.11429,5.30687 5.38604,6.78889 1.09248,0.7127 2.6213,1.5011 2.91084,1.5011 0.0769,0 0.25048,0.0559 0.38583,0.12431 0.95272,0.48131 3.01457,0.8832 5.91443,1.15278 0.85734,0.0797 1.62257,0.17466 1.70051,0.21101 0.21442,0.10001 5.79216,-0.0591 7.08547,-0.20216 z m -87.51212,-12.8412 c 0.92635,-0.0989 2.41571,-0.60453 2.41571,-0.82011 0,-0.0656 -0.44638,-0.78674 -0.99197,-1.60264 -0.54557,-0.8159 -0.99196,-1.60192 -0.99196,-1.7467 0,-0.24395 -0.14946,-0.39187 -1.24733,-1.23444 -0.46496,-0.35686 -1.44514,-2.22247 -1.44514,-2.75061 0,-0.19733 -0.0936,-0.48256 -0.20806,-0.63387 -0.11443,-0.15129 -0.21009,-0.41666 -0.21257,-0.58972 -0.005,-0.32868 -0.62382,-1.79771 -0.91255,-2.16526 -0.16524,-0.21035 -0.30397,-0.60473 -0.64803,-1.84222 -0.0975,-0.35073 -0.22628,-0.79712 -0.28614,-0.99197 -0.59036,-1.92162 -1.20002,-4.73005 -1.35356,-6.2352 -0.21276,-2.0857 -0.37165,-2.59816 -1.0111,-3.26087 -0.339252,-0.35158 -0.719102,-0.82985 -0.844132,-1.06283 -0.39793,-0.74149 -0.90078,-2.09577 -0.90078,-2.426 0,-0.17546 -0.0544,-0.35267 -0.12091,-0.39377 -0.45553,-0.28153 -0.44795,-6.71373 0.009,-7.91769 0.38373,-1.0103 -0.42399,-0.37289 -2.2055,1.74049 -2.72062,3.22744 -4.46322,6.50142 -5.11853,9.6167 -0.30685,1.45865 -0.2791,3.8123 0.0595,5.05021 0.44224,1.61663 0.45977,1.66486 0.92819,2.55416 0.24731,0.46951 0.49471,1.13909 0.54979,1.48795 0.0551,0.34886 0.22076,0.88937 0.36819,1.20113 0.64981,1.37417 0.92452,2.36882 1.29156,4.6764 0.41144,2.58671 0.86773,3.7775 1.48176,3.86703 0.17899,0.0261 0.4303,0.33365 0.69481,0.85026 0.54018,1.05506 2.72035,3.23728 3.691452,3.69493 0.3897,0.18365 0.81927,0.3907 0.95461,0.46011 0.13534,0.0694 0.37867,0.12621 0.54073,0.12621 0.16206,0 0.42755,0.0711 0.58999,0.15806 0.61455,0.3289 2.82425,0.4143 4.92263,0.19026 z m 50.31344,-74.15411 c 1.75381,-0.1764 3.49513,-0.41565 3.85387,-0.52951 0.15681,-0.0498 0.64519,-0.15081 1.08525,-0.22454 1.92247,-0.32206 2.30363,-0.40366 3.84685,-0.8234 3.94131,-1.07203 7.29068,-2.21363 9.54724,-3.25409 5.06387,-2.33487 8.63409,-4.68506 11.91942,-7.84625 0.84657,-0.81459 0.85751,-0.81985 1.5611,-0.74973 0.3897,0.0388 1.05927,0.13747 1.48795,0.2192 2.54755,0.48569 7.29309,0.99688 9.24885,0.99628 1.17043,0 4.71902,-0.34098 5.98489,-0.57447 5.30876,-0.9792 10.4217,-3.51554 13.67784,-6.78507 4.127,-4.14396 6.36383,-9.29633 6.37139,-14.67593 0.004,-2.52808 -0.4435,-4.74552 -1.35069,-6.69964 -0.19096,-0.41132 -0.34719,-0.77907 -0.34719,-0.81724 0,-0.22763 -1.48244,-2.45891 -2.36764,-3.56363 -2.86765,-3.57878 -6.69812,-5.84195 -11.37816,-6.722602 -1.52707,-0.28735 -5.35808,-0.21718 -6.94375,0.12718 -4.63119,1.005762 -7.26748,2.806772 -9.07175,6.197482 -2.93359,5.51301 -5.4686,9.05583 -8.57105,11.97858 -2.69605,2.53986 -4.36661,3.3911 -6.66234,3.39481 -1.22706,0.002 -1.53778,-0.0666 -3.04712,-0.67281 -1.74031,-0.69894 -3.68079,-3.66083 -3.68259,-5.62101 0,-0.55137 -0.0292,-0.58881 -0.64565,-0.84233 -2.32669,-0.95691 -4.06099,-3.41416 -4.27344,-6.05488 -0.0617,-0.76655 -0.007,-1.14724 0.30525,-2.11063 0.48057,-1.48454 1.066,-2.39722 2.22759,-3.47276 0.85129,-0.78823 1.36352,-1.09766 3.12544,-1.88807 1.29232,-0.579742 2.56432,-2.107692 3.87735,-4.657565 0.7496,-1.4557 2.04432,-4.6275 2.04432,-5.00817 0,-0.14421 0.0638,-0.3016 0.1417,-0.34977 0.0779,-0.0482 0.14171,-0.24411 0.14171,-0.43542 0,-0.19131 0.0595,-0.45856 0.13232,-0.5939 0.19352,-0.35991 0.64928,-2.29334 0.84303,-3.57623 0.0647,-0.42868 0.16918,-0.90047 0.2321,-1.04845 0.10525,-0.24747 0.0643,-0.26204 -0.51109,-0.18173 -0.34402,0.048 -0.91246,0.1534 -1.26319,0.23418 -2.23085,0.51381 -6.45065,0.70464 -9.43448,0.42665 -2.79023,-0.25995 -6.70458,-0.97142 -9.76713,-1.77527 -2.36384,-0.62046 -2.82895,-0.75062 -4.53469,-1.26903 -0.93528,-0.28425 -2.08313,-0.63071 -2.55077,-0.76991 -1.65694,-0.49321 -6.95196,-2.31095 -7.50178,-2.57531 -0.30692,-0.14757 -0.66296,-0.26831 -0.79121,-0.26831 -0.12825,0 -0.27689,-0.0437 -0.3303,-0.0971 -0.10301,-0.103 -0.66195,-0.3178 -1.93405,-0.74322 -0.42867,-0.14336 -1.32144,-0.46532 -1.98393,-0.71547 -0.66249,-0.25015 -1.81033,-0.67768 -2.55077,-0.95007 -0.74043,-0.27239 -1.47377,-0.54823 -1.62965,-0.61298 -0.15588,-0.0648 -0.76169,-0.28737 -1.34624,-0.49472 -0.58455,-0.20735 -1.19036,-0.42922 -1.34624,-0.49305 -0.15588,-0.0638 -0.50661,-0.19581 -0.7794,-0.29331 -0.27279,-0.0975 -0.68729,-0.25778 -0.92111,-0.35618 -0.23382,-0.0984 -0.80774,-0.31665 -1.27538,-0.48498 -0.46764,-0.16834 -1.29664,-0.46648 -1.84222,-0.66254 -0.54558,-0.19605 -1.18327,-0.43921 -1.41709,-0.54035 -0.23382,-0.10113 -0.83963,-0.32291 -1.34624,-0.49283 -0.50661,-0.16992 -1.04865,-0.36932 -1.20453,-0.4431 -0.15588,-0.0738 -1.01677,-0.39495 -1.91308,-0.71371 -0.89631,-0.31876 -2.33111,-0.83189 -3.18845,-1.14029 -0.85735,-0.3084 -1.84577,-0.65583 -2.1965,-0.77207 -0.35073,-0.11624 -0.76523,-0.26799 -0.92111,-0.33722 -0.15588,-0.0692 -0.71159,-0.26516 -1.23491,-0.43541 l -0.95149,-0.30954 -0.67817,0.56812 c -2.73607,2.29211 -4.67112,5.45961 -5.90735,9.66979 -0.40438,1.37718 -0.96945,4.34558 -1.14649,6.02264 -0.0494,0.46764 -0.12245,1.02437 -0.16243,1.23717 -0.0626,0.3331 -0.007,0.41451 0.39854,0.58527 0.88746,0.37356 1.5622,0.54427 1.67495,0.42374 0.062,-0.0663 0.15037,-0.53504 0.19634,-1.04165 0.16049,-1.76902 0.4278,-3.28093 0.85184,-4.81811 0.11824,-0.42868 0.25513,-0.93883 0.30417,-1.13368 0.0918,-0.36454 0.13146,-0.47203 0.57566,-1.5588 0.4132,-1.01093 1.38636,-2.45384 2.02181,-2.99777 1.32199,-1.13157 2.9095,-1.06094 4.08409,0.18171 0.53435,0.56531 1.31968,2.09303 1.31968,2.56721 0,0.18363 0.0579,0.39446 0.12864,0.4685 0.13836,0.14478 0.19277,0.56263 0.43798,3.36356 0.11614,1.3266 0.1169,2.35132 0.003,3.82615 -0.17077,2.20828 -0.35319,3.90627 -0.49044,4.56507 -0.0487,0.23382 -0.15738,0.7474 -0.24147,1.14129 l -0.1529,0.71615 1.48843,1.50841 c 1.54646,1.56721 2.91223,3.287923 4.24585,5.349273 0.95421,1.4749 1.84838,3.124682 1.74798,3.225082 -0.0409,0.0409 -0.94639,-0.83085 -2.01227,-1.937162 -6.09928,-6.330673 -13.14254,-9.606323 -20.03412,-9.317383 -4.176892,0.17512 -7.104592,0.74659 -10.021192,1.95609 -5.77881,2.39643 -9.31019,6.725993 -10.67514,13.087985 -0.43959,2.04896 -0.54302,6.13354 -0.20662,8.16073 1.16343,7.01116 6.04001,12.62242 13.15102,15.1323 2.71546,0.95844 4.86399,1.2922 8.322992,1.29295 7.17294,0.002 13.74323,-1.78684 18.88203,-5.1396 1.29383,-0.84415 3.37739,-2.74658 4.12808,-3.76922 l 0.48744,-0.66404 1.25094,-0.18289 c 1.41994,-0.2076 4.57984,-0.82247 5.21879,-1.0155 3.9466,-1.19228 6.77425,-2.38783 9.41553,-3.98093 0.56783,-0.34248 1.14653,-0.68928 1.28601,-0.77067 0.36616,-0.21363 3.17272,-2.10522 3.25682,-2.19506 0.039,-0.0416 0.51724,-0.38841 1.06282,-0.77063 0.54558,-0.38222 1.47024,-1.05585 2.05479,-1.49695 2.36779,-1.78675 4.2945,-2.47724 5.35656,-1.9197 1.29224,0.67838 3.1855,3.67735 3.98152,6.30682 0.6589,2.17651 0.75172,2.67817 0.82824,4.47674 0.182,4.27756 -1.56035,8.9126 -4.39519,11.69223 -1.34895,1.32267 -2.77268,2.05544 -4.58235,2.35846 l -0.44088,0.0738 -0.0814,2.21872 c -0.0448,1.22028 -0.15465,2.47379 -0.24422,2.78555 -0.0896,0.31176 -0.22902,0.82191 -0.30988,1.13367 -0.84908,3.27358 -3.34187,6.32699 -6.2317,7.63318 -2.0875,0.94355 -2.98416,1.12163 -5.6426,1.1207 -2.05181,-0.001 -2.52913,-0.0473 -3.897,-0.38056 -0.85735,-0.20884 -1.70101,-0.45067 -1.87482,-0.53736 -0.28558,-0.14248 -0.39723,-0.0702 -1.15925,0.75045 -0.74638,0.8038 -0.81684,0.92846 -0.61344,1.08525 0.12639,0.0974 0.37327,0.17713 0.54862,0.17713 0.17536,0 0.35824,0.0638 0.40641,0.14171 0.0482,0.0779 0.24743,0.14171 0.44281,0.14171 0.19537,0 0.49451,0.0749 0.66475,0.16652 0.17024,0.0916 0.54867,0.21913 0.84094,0.28342 0.74067,0.16293 1.49543,0.35307 2.16107,0.54442 0.31176,0.0896 0.8538,0.21588 1.20453,0.28057 0.35073,0.0647 1.14784,0.22342 1.77136,0.3527 0.62352,0.12928 1.48441,0.28743 1.91308,0.35146 0.42867,0.064 0.95891,0.18694 1.17832,0.27317 0.21941,0.0862 0.8571,0.16434 1.4171,0.17356 0.55999,0.009 1.20947,0.0669 1.44329,0.12812 0.56938,0.14912 10.69808,0.051 12.39956,-0.12015 z m -17.0596,-47.55678 c -0.96757,-0.35801 -1.92227,-1.53259 -2.42806,-2.9873 -0.59787,-1.719512 -0.87575,-5.195125 -0.65929,-8.245975 0.31606,-4.45455 1.03213,-7.60044 2.30731,-10.13666 1.4501,-2.88409 3.58416,-3.73227 5.49897,-2.18554 0.25803,0.20844 1.07513,1.49337 1.1844,1.86255 0.0461,0.15588 0.1876,0.63415 0.31436,1.06282 0.41487,1.40294 0.55886,2.86278 0.55211,5.59751 -0.009,3.47252 -0.15874,4.84252 -0.90097,8.219143 -1.08106,4.918152 -3.47616,7.698742 -5.86883,6.813452 z m 5.95811,-50.070205 c 1.09314,-1.38569 2.38831,-4.234294 2.97992,-6.554054 0.34811,-1.364972 0.37984,-1.722181 0.38397,-4.322131 0.004,-2.445511 -0.0374,-2.999369 -0.30107,-4.038711 -0.44371,-1.7491 -0.81029,-2.829018 -1.33153,-3.922664 -2.37683,-4.986921 -6.54776,-8.398998 -11.78191,-9.638314 -1.3015,-0.308165 -5.15058,-0.34737 -6.41034,-0.06529 -3.26684,0.731487 -6.11535,2.257512 -8.36044,4.478931 -2.06951,2.047673 -3.23869,3.905043 -4.46465,7.092556 -0.15556,0.404459 -0.38756,1.272871 -0.62466,2.3382 -0.41042,1.844104 -0.38119,5.94157 0.0548,7.687922 0.18517,0.741616 0.0745,0.685277 1.8456,0.939277 2.45346,0.351853 2.56346,0.356764 2.46886,0.110236 -0.048,-0.125115 -0.38401,-0.413811 -0.74667,-0.641551 -0.36266,-0.22774 -0.86648,-0.596079 -1.11961,-0.818527 l -0.46022,-0.404454 2.25311,-4.463844 c 4.74611,-9.402947 6.19901,-12.215175 6.32166,-12.236149 0.0698,-0.01194 1.16014,2.018911 2.423,4.512996 1.26285,2.494084 2.38885,4.55362 2.50222,4.576758 0.11587,0.02362 1.74612,-1.544428 3.72302,-3.580998 2.132,-2.196353 3.56806,-3.571892 3.64683,-3.493128 0.0715,0.07146 0.18978,0.535064 0.26295,1.030231 0.17991,1.217679 0.33644,2.103476 0.60981,3.451068 0.12649,0.623517 0.29204,1.516288 0.3679,1.983926 0.22025,1.357784 0.39327,2.328302 0.63158,3.542735 0.12235,0.623517 0.28453,1.516288 0.36038,1.983926 0.22026,1.357784 0.39328,2.328302 0.63158,3.542735 0.28846,1.46997 0.49417,2.955692 0.41957,3.030294 -0.0701,0.07015 -1.2965,0.469122 -2.18933,0.712255 -0.35073,0.09551 -0.829,0.227874 -1.06282,0.294132 -0.23382,0.06626 -0.62797,0.161696 -0.87589,0.212074 -0.57468,0.116775 -0.8965,0.46309 -0.60294,0.64884 0.11189,0.07081 0.31661,0.129721 0.45492,0.13091 0.26261,0.0021 5.07603,1.349533 6.55057,1.833503 1.06306,0.3489 1.19765,0.35323 1.43978,0.0463 z m -9.85171,-7.052868 c -0.0294,-2.603898 -0.10857,-4.592146 -0.1862,-4.673572 -0.0885,-0.09276 -0.29107,0.03294 -0.58661,0.363866 -3.17019,3.549971 -4.98997,5.433537 -5.1525,5.333087 -0.17446,-0.107821 -1.0945,-1.975164 -3.10515,-6.302292 -0.2669,-0.574398 -0.48694,-0.87469 -0.62209,-0.848981 -0.2888,0.05494 -2.83722,7.654651 -2.66815,7.956763 0.0669,0.119545 0.35904,0.257808 0.6492,0.307254 2.32765,0.396672 7.6587,1.541874 10.51806,2.259452 1.31456,0.329899 1.21115,0.723957 1.15344,-4.395577 z"
       id="path30" />
  </g>
</svg>
