<?xml version="1.0" encoding="UTF-8"?>
<svg width="2621.4" height="1310.7" version="1.1" viewBox="0 0 2621.4 1310.7" xmlns="http://www.w3.org/2000/svg" xmlns:cc="http://creativecommons.org/ns#" xmlns:dc="http://purl.org/dc/elements/1.1/" xmlns:rdf="http://www.w3.org/1999/02/22-rdf-syntax-ns#">
 <metadata>
  <rdf:RDF>
   <cc:Work rdf:about="">
    <dc:format>image/svg+xml</dc:format>
    <dc:type rdf:resource="http://purl.org/dc/dcmitype/StillImage"/>
    <dc:title/>
   </cc:Work>
  </rdf:RDF>
 </metadata>
 <path d="m-2.3918 1286.4v-24.32l79.84-0.029c43.912-0.016 83.44-0.143 87.84-0.2824 4.4-0.1395 48.032-0.4361 96.96-0.6592s90.976-0.5107 93.44-0.639 31.696-0.4193 64.96-0.6467c33.264-0.2274 62.127-0.5102 64.14-0.6285l3.6601-0.215 1.4599 2.9611c0.80292 1.6286 3.9345 5.5511 6.959 8.7167l5.4992 5.7555 4.1008 0.4319c2.2554 0.2375 11.157 0.3189 19.781 0.181s42.032-0.5409 74.24-0.8955 104.78-1.2024 161.28-1.8839c56.496-0.6816 122.88-1.4023 147.52-1.6016 24.64-0.1993 47.795-0.5287 51.455-0.732l6.6555-0.3697-6.0717-5.8519c-3.3394-3.2185-6.9724-7.1853-8.0734-8.8151l-2.0017-2.9632 43.338-0.3981c97.362-0.8942 120.34-1.0479 212.3-1.4193 52.8-0.2134 96.242-0.6146 96.538-0.8918 0.2957-0.2771 0.062-5.5034-0.5191-11.614-0.943-9.9136-2.1947-31.992-2.2412-39.532l-0.017-2.8214 131.04 0.5064c72.072 0.2785 132.34 0.5739 133.92 0.6563 1.584 0.082 33.696 0.3532 71.36 0.6018 37.664 0.2487 69.488 0.5531 70.72 0.6765 1.232 0.1235 27.296 0.4185 57.92 0.6557s56.544 0.5238 57.6 0.6369c1.056 0.113 25.248 0.4052 53.76 0.6491 28.512 0.244 51.956 0.5517 52.099 0.6838 0.4262 0.3961-3.1344 13.493-5.8113 21.376-3.2285 9.507-9.8475 23.037-13.87 28.352l-3.1626 4.1783 3.6128 0.3595c1.9869 0.1978 22.765 0.5156 46.173 0.7063s46.592 0.48 51.52 0.6428c4.928 0.1629 30.704 0.4512 57.28 0.6406 26.576 0.1895 50.912 0.4781 54.08 0.6413 3.168 0.1633 32.688 0.4604 65.6 0.6602 32.912 0.1999 62.144 0.4763 64.96 0.6141 2.816 0.1379 45.728 0.4296 95.36 0.6485 49.632 0.2187 92.832 0.506 96 0.6384s44.568 0.2581 92 0.2796l86.24 0.039v48.64h-2621.4zm520.99-14.702c-7.1912-4.9363-11.427-8.6142-14.888-12.926-9.8771-12.307-16.124-25.655-20.669-44.166-1.2288-5.0042-2.2341-9.2902-2.2341-9.5244s14.04-0.6107 31.2-0.8367 43.584-0.5763 58.72-0.7783c15.136-0.2021 27.984-0.4953 28.551-0.6517 0.92083-0.2541 0.94148-0.6757 0.19342-3.9495-1.2098-5.2946-4.7443-27.735-4.7443-30.121v-2.0242l13.92-0.041c7.656-0.022 15.504-0.141 17.44-0.2629 1.936-0.122 22.384-0.3935 45.44-0.6034 23.056-0.2098 51.568-0.5221 63.36-0.6939 11.792-0.1717 32.575-0.4762 46.184-0.6766 23.522-0.3462 24.761-0.3068 25.086 0.7969 0.18823 0.6386 0.51507 3.6091 0.7264 6.6011 0.34183 4.8411 1.7022 18.043 2.6182 25.408 0.2448 1.9686 0.68301 2.7985 1.6376 3.1014 0.71687 0.2276 13.301 0.2437 27.966 0.036 14.664-0.2078 40.09-0.5514 56.501-0.7636l29.839-0.3858 0.45152 3.7421c0.8567 7.0997 3.6164 24.24 4.9303 30.622 2.5997 12.628 8.2195 27.014 12.963 33.183 1.3122 1.7066 2.2941 3.176 2.182 3.2653-0.11206 0.09-32.172 0.4961-71.244 0.9037s-80.544 0.8954-92.16 1.0839c-28.383 0.4606-168.01 2.0973-218.56 2.5621l-40.64 0.3735-4.7694-3.2738zm-520.99-37.764v-26.254l50.72-0.04c27.896-0.022 54.32-0.147 58.72-0.2781 4.4-0.131 53.783-0.4183 109.74-0.6384 55.957-0.2201 104.05-0.5114 106.88-0.6474 2.827-0.1359 30.916-0.4101 62.42-0.6093 31.504-0.1992 63.904-0.542 72-0.7618l14.72-0.3996 1.8276 10.807c2.4584 14.537 5.5781 26.509 9.054 34.744 1.5831 3.7506 2.8784 6.9911 2.8784 7.2011s-13.628 0.4343-30.285 0.4985c-16.657 0.064-32.713 0.2258-35.68 0.3591-12.638 0.5678-234.72 1.9604-340.6 2.1357l-82.4 0.1366zm2430.2 25.732-12.386-0.174 0.4059-1.6171c0.8061-3.2118 2.236-14.861 2.9013-23.635 0.3736-4.928 0.9594-12.272 1.3015-16.32 0.3422-4.048 0.6269-8.1985 0.6326-9.2232l0.01-1.8633 59.36 0.4183c32.648 0.2301 77.288 0.4205 99.2 0.4233l39.84 0.01v52.523l-89.44-0.1815c-49.192-0.1-95.014-0.2598-101.83-0.3555zm-97.499-0.4534c-0.1071-0.09-30.147-0.349-66.755-0.5753-36.608-0.2264-74.192-0.55-83.52-0.7191-9.328-0.1692-32.656-0.4558-51.84-0.6368-59.969-0.5658-205.75-2.358-205.93-2.5315-0.096-0.091 0.6693-2.0464 1.7007-4.3453 3.0384-6.7721 7.5472-20.705 9.3729-28.964 3.0663-13.872 6.6379-41.508 8.0517-62.304l0.7985-11.744 8.6853 0.3738c4.777 0.2056 28.269 0.5538 52.205 0.7738 23.936 0.2201 43.56 0.4405 43.61 0.4899 0.049 0.049-0.3444 3.9296-0.8752 8.6226-0.5424 4.7968-0.7219 8.756-0.4097 9.0425 0.529 0.4857 28.029 0.9098 105.68 1.6297 19.272 0.1786 42.672 0.4633 52 0.6326s47.488 0.4815 84.8 0.6937 69.136 0.4841 70.72 0.6042c1.584 0.12 15.213 0.2377 30.286 0.2614l27.406 0.043-0.3488 3.36c-0.1919 1.848-0.6685 7.392-1.0593 12.32-1.3141 16.572-4.673 40.243-7.056 49.726-1.4464 5.7557-4.9694 16.151-6.9633 20.547l-1.394 3.0732-34.48-0.105c-18.964-0.058-34.568-0.1788-34.675-0.2689zm-1382.1-10.658c-5.4868-9.7493-10.026-23.036-12.979-37.994-1.1121-5.632-2.2982-10.919-2.6358-11.75l-0.61395-1.5097-38.222 0.3927c-21.022 0.216-46.892 0.5648-57.489 0.7752l-19.267 0.3825-0.43303-2.1456c-1.0482-5.1942-4.2205-27.97-5.1569-37.026-0.56429-5.456-1.1098-10.687-1.2122-11.625-0.1737-1.5898 0.0109-1.7247 2.7348-1.9961 1.6066-0.16 15.449-0.3495 30.761-0.4209 15.312-0.071 29.28-0.2299 31.04-0.352 1.76-0.1222 25.376-0.3903 52.48-0.5958 111.89-0.848 140.2-1.1278 141.04-1.3933 0.7084-0.2245 0.7984-1.503 0.4576-6.5082-0.4878-7.1664-2.2765-50.645-2.2902-55.669l-0.01-3.36h85.557l0.4505 36.32c0.7617 61.399 1.5371 89.916 2.4616 90.53 0.7848 0.5214 57.451 0.516 64.414-0.01l3.4426-0.2581-0.3563-3.4527-0.3564-3.4527h71.144l-0.3988 14.56c-0.3434 12.538-1.9818 37.155-2.5039 37.621-0.096 0.085-40.206 0.3325-89.134 0.549-89.128 0.3944-131.58 0.6828-209.34 1.4222l-41.657 0.3961-1.9327-3.4341zm-950.59-81.834v-39.04l24.48-0.047c13.464-0.026 28.8-0.1086 34.08-0.1833 5.28-0.075 9.96-0.022 10.4 0.1159 0.62849 0.1978 0.8 8.6071 0.8 39.223v38.972h-69.76v-39.04zm77.198 32.18c-1.2639-21.302-2.7738-66.89-3.3393-100.82l-0.424-25.44 53.683-0.055c29.526-0.03 55.123-0.1442 56.883-0.2531s37.734-0.3835 79.942-0.6102c42.208-0.2267 77.019-0.5831 77.357-0.7922 0.37765-0.2334 0.44103-3.0641 0.16423-7.3348l-0.45075-6.9548 16.374-0.08c9.0057-0.044 16.95-0.152 17.654-0.24s2.864-0.1959 4.8-0.24l3.52-0.08v-10.88h30.72v-16.64l20.64-0.043c11.352-0.024 21.792-0.1363 23.2-0.2496s24.16-0.3842 50.56-0.602 55.056-0.5352 63.68-0.7054 29.288-0.4747 45.92-0.6766l30.24-0.3671v3.4822c0 1.9152 0.17836 4.3741 0.39641 5.4641l0.39635 1.982-18.393 0.3561 0.20967 9.1099 0.20967 9.11-36.259 0.3401v21.76l-35.84 0.64 0.19778 9.6c0.10877 5.28 0.46472 14.908 0.79099 21.396 0.32628 6.4876 0.48749 11.902 0.35826 12.031-0.56417 0.5641-9.4345 0.7306-58.627 1.1003-28.688 0.2156-54.896 0.5196-58.24 0.6758-3.344 0.1561-32.576 0.4564-64.96 0.6675-32.384 0.211-59.402 0.5315-60.039 0.7123-1.066 0.3024-1.1294 0.9793-0.79001 8.4333 0.20297 4.4574 0.66085 15.016 1.0175 23.464 0.61091 14.47 2.0036 35.572 2.9159 44.183 0.36917 3.4846 0.29204 3.8667-0.78757 3.9017-0.65826 0.021-43.677 0.2324-95.597 0.4691-51.92 0.2366-106.39 0.5778-121.04 0.7581l-26.636 0.328-0.40938-6.8999zm2385.3 6.3753-39.611-0.1648 0.4349-6.8752c0.551-8.7111 1.6275-45.238 1.6498-55.978l0.017-8.1429 18.88-0.3542 0.1969-3.4622 0.197-3.4622 73.403 0.4145c40.372 0.228 80.243 0.418 88.603 0.4222l15.2 0.01v78.166l-59.68-0.2032c-32.824-0.1117-77.505-0.2773-99.291-0.368zm-2133.1-2.7826c-1.6338-7.4725-5.3878-45.05-7.0742-70.812l-0.38753-5.92 29.303-0.049c16.117-0.027 29.735-0.1309 30.263-0.2309s25.728-0.3707 56-0.6015c30.272-0.2307 60.8-0.5561 67.84-0.7228 7.04-0.1668 28.568-0.4709 47.84-0.6758 34.919-0.3712 35.04-0.368 35.04 0.9279 0 1.6684 1.7786 29.697 2.2586 35.592 0.62616 7.6908 1.5596 16.843 2.9561 28.986 0.74046 6.4385 1.2381 11.802 1.1058 11.92-0.39253 0.3491-40.229 0.9833-84.08 1.3383-22.528 0.1824-46.288 0.4682-52.8 0.635s-37.96 0.4927-69.885 0.7243l-58.045 0.4211-0.33506-1.5325zm834.57-1.6263c-1.7211-10.924-4.1744-59.842-5.2674-105.03l-0.4373-18.08 13.859-0.08c7.6225-0.044 15.587-0.152 17.699-0.24s44.016-0.196 93.12-0.24l89.28-0.08v-11.082l43.04 0.4112c23.672 0.2262 55.064 0.4156 69.76 0.421l26.72 0.01 0.011 7.84c0.012 8.9599-1.8537 61.896-2.2839 64.8l-0.2845 1.92-141.32-0.3499-0.3572 5.9349c-0.1964 3.2643-0.6834 15.295-1.0822 26.735-0.3987 11.44-0.8584 21.016-1.0215 21.28-0.163 0.264-33.088 0.48-73.166 0.48-40.078 0-73.326 0.1748-73.882 0.3885-0.7276 0.2792-1.0123 1.2482-1.0123 3.4453 0 2.6697-0.1825 3.0885-1.44 3.3061-0.792 0.1371-12.714 0.3444-26.493 0.4608l-25.053 0.2116-0.3885-2.4662zm767.56-0.4738c-0.1467-0.1361-22.299-0.4358-49.227-0.6659s-51.696-0.5368-55.04-0.6817c-3.344-0.1448-28.688-0.426-56.32-0.6249s-53.984-0.4947-58.56-0.6574-35.536-0.4797-68.8-0.7045c-33.264-0.2247-60.598-0.5169-60.743-0.6494-0.1445-0.1324 0.2239-8.3785 0.8186-18.325 1.1787-19.71 2.0292-41.757 2.7202-70.501l0.4446-18.497 30.78 0.4205c54.082 0.7387 76 0.6444 76.618-0.3298 0.2984-0.4708 0.5471-5.4111 0.5524-10.978l0.01-10.122 8.48 0.3512c4.664 0.1931 29.216 0.503 54.56 0.6885s54 0.4767 63.68 0.6472 32.144 0.4571 49.92 0.637c80.828 0.8177 127.48 1.515 127.88 1.9116 0.589 0.5789-3.7018 65.878-4.7278 71.948l-0.3683 2.1792-53.73-0.7498-0.5167 1.3957c-0.2842 0.7676-0.7106 3.6996-0.9475 6.5156-0.8519 10.127-6.2305 46.054-7.0115 46.834-0.1131 0.113-0.3256 0.094-0.4722-0.042zm-364.31-3.9968c-0.061-0.046-43.744-0.2919-97.072-0.5456s-97.064-0.56-97.192-0.6805c-0.1274-0.1206-0.2714-11.917-0.32-26.213l-0.089-25.994 70.581 0.1246c38.82 0.069 70.718-0.012 70.884-0.1788 0.167-0.1668 0.6071-20.149 0.9783-44.406 0.3712-24.256 0.8731-52.688 1.1155-63.182l0.4406-19.08 71.172 0.116 0.4097-4.3384c0.2254-2.3861 0.4118-9.7836 0.4143-16.439l0.01-12.1 27.68 0.4241c15.224 0.2332 38.835 0.4415 52.468 0.4629 13.634 0.021 24.939 0.2823 25.123 0.5799 0.3923 0.6349-0.5838 37.787-1.9257 73.294-0.5189 13.728-0.9439 26.084-0.9446 27.458v2.4979l-107.84-0.516-0.4439 10.56c-1.5692 37.323-3.6303 67.089-6.3705 92.004l-0.7219 6.5638-4.12-0.1638c-2.2661-0.09-4.1704-0.2017-4.2319-0.2481zm765.84-28.242-30.212-0.1662 0.393-8.6933c0.3206-7.0942 0.2271-8.7984-0.5085-9.2641-0.4958-0.3138-4.6454-0.5747-9.2214-0.5797l-8.32-0.01 0.5348-13.812c0.2941-7.5969 0.3721-13.975 0.1732-14.174-0.5001-0.5-4.7112-0.6877-16.963-0.756l-10.495-0.058 0.3546-8.9595c0.1951-4.9277 0.1423-9.0908-0.1173-9.2512-0.2597-0.1605-4.4115-0.3339-9.2264-0.3854l-8.7544-0.094 0.3565-18.335c0.1959-10.084 0.4962-19.503 0.6672-20.931l0.311-2.5961 42.379 0.2694c23.309 0.1481 42.404 0.3082 42.433 0.356 0.097 0.1578-2.207 59.551-2.4191 62.353-0.1761 2.3274-0.012 2.7859 1.0789 3.0063 0.7077 0.143 26.631 0.4456 57.607 0.6724s56.411 0.5005 56.521 0.6083c0.1106 0.1078 0.01 1.2257-0.228 2.4842l-0.4293 2.2882-9.052 0.1772-9.052 0.1771-0.7871 13.44c-0.433 7.392-0.9625 15.538-1.1767 18.102l-0.3895 4.6618-27.623-0.1818c-15.193-0.1-41.219-0.2565-57.835-0.3479zm-54.131-0.5229c-0.075-0.06-27.641-0.2972-61.257-0.5262-33.616-0.2291-65.296-0.5475-70.4-0.7076-5.104-0.1602-28.288-0.4674-51.52-0.6827-23.232-0.2152-42.318-0.4673-42.414-0.5601-0.096-0.093 0.049-3.7385 0.32-8.1015l0.4939-7.9328 8.32 0.187c4.576 0.1029 8.7163-0.081 9.2007-0.4076 0.6146-0.415 1.079-3.2263 1.5374-9.307l0.6568-8.7124h4.3079c4.9676 0 5.0733-0.1377 5.0885-6.6268l0.01-3.7469 8.48 0.4029c4.664 0.2216 8.8241 0.1725 9.2447-0.1091 0.4951-0.3315 0.9248-3.7463 1.2187-9.684l0.454-9.172 8.0613 0.1611c4.4337 0.089 8.4213 0.1192 8.8613 0.068 0.5337-0.062 0.8-1.2864 0.8-3.6774v-3.5842l17.44 0.3825c9.592 0.2103 35.8 0.5618 58.24 0.781l40.8 0.3986v3.4432c0 1.8937 0.288 3.4791 0.64 3.5231s0.928 0.152 1.28 0.24 4.1347 0.196 8.4061 0.24l7.7661 0.08-0.4597 9.28-0.4596 9.28 13.334 0.076c7.3335 0.042 13.562 0.038 13.84-0.01 0.5445-0.091 0.088 11.016-0.8743 21.275-0.3251 3.4661-0.4304 6.5621-0.234 6.88 0.1965 0.3178 4.3991 0.5779 9.3392 0.5779h8.9819l-0.4041 6.24c-0.2222 3.432-0.5542 7.1976-0.7377 8.368l-0.3336 2.128-8.9449-0.1776c-4.9198-0.098-9.0067-0.2271-9.0821-0.2875zm-1682.4-3.2529c-3e-3 -0.2959-0.42649-4.138-0.94067-8.538-1.2506-10.702-3.0176-32.089-2.6792-32.428 0.14877-0.1487 14.201-0.4376 31.228-0.642 17.027-0.2043 31.219-0.6109 31.538-0.9035 0.34733-0.3183 0.32954-4.5931-0.0442-10.639-0.41625-6.7333-0.41081-10.251 0.016-10.537 0.35264-0.2366 12.113-0.4631 26.133-0.5035 14.021-0.04 25.953-0.2503 26.516-0.4666 0.90669-0.3479 0.97581-1.6164 0.60045-11.016-0.23328-5.8429-0.57261-11.394-0.75405-12.337l-0.32985-1.7136 5.9606-0.2433c3.2783-0.1339 15.288-0.3062 26.688-0.3829 11.4-0.077 21.002-0.3093 21.338-0.5167 0.37888-0.2342 0.43476-5.0796 0.1474-12.784l-0.46285-12.406 10.325-0.08c5.6787-0.044 10.613-0.152 10.965-0.24s7.8729-0.196 16.713-0.24l16.073-0.08-0.94336-36.48 12.399-0.023c6.8193-0.013 16.349-0.1923 21.177-0.3988l8.7783-0.3756 0.1817 7.2789 0.18169 7.2788 26.397 0.3454 0.39463 2.3873c0.21702 1.313 0.39776 4.3313 0.40166 6.7073l7e-3 4.32-8.16 0.01c-4.488 0.01-8.5528 0.2586-9.033 0.5628-0.69978 0.4434-0.82522 2.8537-0.63213 12.15 0.13248 6.3785 0.23731 11.64 0.23296 11.693-6e-3 0.053-8.0719 0.2688-17.928 0.48l-17.92 0.3842 0.23552 9.0718 0.23546 9.0718-13.324 0.07c-7.3284 0.039-13.444 0.1905-13.591 0.3372-0.5408 0.5408 2.0351 55.251 3.4963 74.262l0.41715 5.4265-10.174 0.047c-5.5959 0.026-11.182 0.1315-12.414 0.2347-1.232 0.1033-23.12 0.3731-48.64 0.5995-25.52 0.2264-52.448 0.5502-59.84 0.7195-30.721 0.7038-80.96 1.0372-80.966 0.5374zm1463.4-17.292c-0.704-0.085-14.436-0.2427-30.515-0.3496-16.08-0.1068-29.384-0.3433-29.567-0.5255-0.1823-0.1823-0.062-4.0664 0.2669-8.6313 1.1194-15.527 3.1685-66.483 2.6908-66.913-0.561-0.5049-24.77-1.2056-42.076-1.2177l-12.16-0.01 0.8066-30.561c0.4436-16.808 0.9801-35.283 1.1923-41.054l0.3856-10.494 18.328 0.4077c10.08 0.2242 39.064 0.5948 64.408 0.8236s46.512 0.4975 47.04 0.5972c0.528 0.1 9.7688 0.2032 20.535 0.2301l19.575 0.049-0.2224 6.56c-0.1223 3.608-0.6617 20.096-1.1986 36.64-0.537 16.544-1.3968 38.144-1.9109 48-0.514 9.856-0.935 18.352-0.9356 18.88 0 0.8067-1.406 0.96-8.8018 0.96h-8.8007l-0.4913 5.44c-0.2702 2.992-0.6485 7.1966-0.8406 9.3437l-0.3494 3.9037-7.5866-0.3063c-4.1727-0.1685-8.3304-0.1197-9.2394 0.1085-1.5118 0.3794-1.6534 0.7001-1.6614 3.7626-0.015 5.9923-0.1982 6.2278-4.8281 6.2278-2.2262 0-4.1994 0.2455-4.3849 0.5456-0.1854 0.3001-0.6933 4.4885-1.1286 9.3076l-0.7913 8.7619-3.2292-0.1667c-1.7761-0.092-3.8052-0.2366-4.5092-0.322zm-1247.9-6.0808c-0.49075-4.478-2.737-37.562-3.2838-48.366l-0.42924-8.48 12.231-0.08c6.7272-0.044 12.519-0.152 12.871-0.24s0.95481-0.196 1.3396-0.24c0.49363-0.056 0.56371-2.7185 0.23795-9.04l-0.46163-8.96 15.442-0.08c8.4931-0.044 15.73-0.152 16.082-0.24s1.5227-0.196 2.6015-0.24l1.9615-0.08-0.40294-24 25.12-0.1674c19.846-0.1323 25.138 0 25.204 0.64 0.0461 0.4441 0.2622 7.4314 0.48 15.527l0.39596 14.72 32.186 0.3417 0.3856 9.7492c0.2121 5.362 0.67616 19.541 1.0312 31.509 0.35513 11.968 0.80198 23.416 0.99308 25.44l0.3474 3.68-8.1918 0.055c-4.5055 0.03-9.1998 0.1318-10.432 0.2256-1.232 0.094-28.736 0.3744-61.12 0.6235-32.384 0.249-60.081 0.6-61.548 0.78l-2.6683 0.3272zm149.12 0.6627c-0.41587-1.2879-2.1503-31.468-3.0383-52.868-0.50407-12.149-1.0149-18.75-1.4551-18.806-0.37312-0.047-7.617-0.015-16.098 0.071l-15.419 0.1569-0.42086-5.9289c-0.23149-3.261-0.42087-9.0126-0.42087-12.781s-0.18316-8.1886-0.40697-9.8217l-0.40698-2.9693h-35.666v-2.7834c0-1.5309-0.18624-4.9869-0.41389-7.68l-0.41395-4.8966h-26.518l-0.56685-7.2-0.56691-7.2h-19.341l-0.40442-10.24c-0.2224-5.632-0.59565-19.952-0.82931-31.822l-0.42496-21.582 41.137-0.3552 0.17133 14.4 0.17127 14.4 24.48-0.1358 24.48-0.1356v14.842l45.12-0.4902 0.1755 10.72 0.1755 10.72h35.616l0.3861 6.8177c0.2123 3.7497 0.6619 7.0934 0.999 7.4305 0.3667 0.3668 5.776 0.5133 13.47 0.3649l12.858-0.2481v10.684c0 7.9756 0.2028 10.753 0.8 10.956 0.44 0.1495 6.444 0.1384 13.342-0.024l12.542-0.2964 0.4177 3.0472c0.2297 1.676 0.4147 9.415 0.4111 17.198-0.01 7.7828 0.3246 28.054 0.7295 45.048 0.4049 16.993 0.6238 30.999 0.4866 31.124s-23.791 0.4358-52.564 0.6912c-43.783 0.3887-52.36 0.3228-52.594-0.4039zm-961.01-47.908v-32h5.12v9.8154c0 5.3985-0.19064 19.798-0.42364 32l-0.42364 22.185h-4.2727zm8.8749 11.759c-0.0468-11.22-0.2628-26.015-0.48-32.879l-0.3949-12.48-4-0.1905-4-0.1906v-143.3l31.2-0.02c17.16-0.011 39.048-0.1626 48.64-0.3365l17.44-0.3161 6.4e-4 45.296c3.8e-4 24.913 0.19136 59.763 0.4244 77.444l0.42371 32.147-28.049 0.3456-0.16694 27.04c-0.0918 14.872-0.23582 27.058-0.32 27.081-0.0842 0.022-13.761 0.202-30.393 0.3993l-30.24 0.3589zm2519.6 19.744-10.08-0.1762v-19.664c0-10.815 0.1905-25.064 0.4212-31.664l0.4194-12h102.2v64.154l-41.44-0.2371c-22.792-0.1305-45.976-0.3165-51.52-0.4135zm-169.69-0.63-30.011-0.1664 0.4196-20.314c0.2308-11.172 0.5977-25.498 0.8154-31.834l0.3958-11.52 40.023 0.4335 0.3704-5.9767c0.2038-3.2873 0.5497-25.057 0.7688-48.377l0.3982-42.4-19.745-0.071c-10.86-0.039-20.897-0.1568-22.305-0.2613-1.408-0.1044-11.13-0.2162-21.604-0.2485l-19.044-0.059 0.3456-38.56c0.19-21.208 0.5074-41.234 0.7054-44.503l0.36-5.9427 74.658 0.3639c41.062 0.2002 79.267 0.4876 84.899 0.6388 5.632 0.1511 29.176 0.2856 52.32 0.2987l42.08 0.024v25.6h36.438l0.1809 7.2 0.181 7.2 40 0.3383v143.33l-105.92 0.3274-0.4669 24.64c-0.2569 13.552-0.6464 28.178-0.8658 32.503l-0.3989 7.8632-62.494-0.1832c-34.372-0.1007-75.999-0.2579-92.505-0.3495zm-1793.9-6.6102c-0.34263-3.2001-1.0023-13.219-2.0507-31.144l-0.42111-7.2 17.042-0.08c9.3733-0.044 17.33-0.152 17.682-0.24s0.9488-0.196 1.3262-0.24c0.66401-0.077 0.43068-10.03-0.43302-18.47l-0.34281-3.3499 18.125-0.1701 18.125-0.17-0.20432-18.24h8.8644c4.8754 0 8.9757-0.216 9.1118-0.48 0.13612-0.264-0.10605-10.848-0.53818-23.52-0.43206-12.672-0.9159-28.008-1.0752-34.08l-0.28966-11.04 6.7856-0.053c3.7321-0.029 7.5056-0.1344 8.3856-0.2334s25.072-0.3854 53.76-0.6362c28.688-0.2509 52.952-0.5819 53.92-0.7357l1.76-0.2797 6e-3 9.4491c0 5.1971 0.1872 10.961 0.40915 12.809l0.40359 3.36h35.542l0.36262 5.92c0.19943 3.256 0.53632 15.064 0.74861 26.24l0.38598 20.32-10.449 0.01c-16.231 0.012-43.046 0.7462-43.479 1.1917-0.21459 0.2206-0.18624 5.8731 0.0634 12.561 0.24928 6.688 0.40838 12.224 0.35354 12.303-0.055 0.079-9.2992 0.2082-20.543 0.2875-11.244 0.079-23.44 0.251-27.104 0.3814l-6.6601 0.2371 0.41158 12.755 0.41165 12.755-23.671 0.08c-13.019 0.044-24.247 0.152-24.951 0.24s-2.3112 0.196-3.5716 0.24l-2.2916 0.08 0.46035 10.88 0.46036 10.88h-8.8887c-4.8888 0-24.342 0.1919-43.23 0.4235l-34.341 0.4209-0.37083-3.4634zm1633.2-23.977c-0.352-0.1031-17.714-0.3154-38.582-0.4718-20.868-0.1565-38.105-0.4479-38.305-0.6477s-0.044-10.966 0.3455-23.925c0.3898-12.959 0.9949-37.818 1.3447-55.242 0.3499-17.424 0.808-35.744 1.0182-40.71l0.3822-9.0301 4.2579 0.2176c2.3419 0.1196 20.189 0.3383 39.661 0.486 19.472 0.1477 35.539 0.4046 35.705 0.5711s0.038 9.7713-0.2864 21.344c-0.324 11.573-0.4074 21.229-0.1853 21.459s8.384 0.5299 18.138 0.6671 17.848 0.3812 17.988 0.5423-0.012 9.6112-0.3365 21c-0.3246 11.389-0.4361 21.109-0.2477 21.6 0.2799 0.7295 3.1673 0.8927 15.791 0.8927 13.824 0 15.408 0.1064 15.06 1.0124-0.2137 0.5568-0.3885 1.852-0.3885 2.8783v1.866l-31.04-0.3167-0.4743 12.16c-0.2608 6.688-0.6486 14.837-0.8618 18.108l-0.3875 5.9481-18.978-0.1113c-10.438-0.061-19.266-0.1956-19.618-0.2987zm-1129.3-19.326c-0.031-0.616-0.2474-7.6577-0.4802-15.648-0.2759-9.4705-0.6768-14.782-1.1515-15.256-0.5111-0.5111-4.5679-0.6638-13.6-0.5118l-12.872 0.2165-0.063-9.28c-0.034-5.104-0.2652-10-0.5118-10.88l-0.4484-1.6-26.452 0.4826-0.1818-7.2813-0.1816-7.2813-18.065-0.1699-18.065-0.17-0.1754-10.71-0.1754-10.71-45.076 0.5091-0.18189-7.2946-0.18182-7.2945-48.96 0.5-0.064-13.05c-0.0352-7.1775-0.25645-13.738-0.49197-14.578l-0.42816-1.5284-42.492 0.2568-0.34681-1.48c-0.19112-0.8139-0.41717-5.6559-0.50261-10.76l-0.15539-9.28-34.24 0.162-0.0901-6.4814c-0.0493-3.5648-0.26547-14.977-0.48-25.361l-0.38995-18.88-12.294-0.3641-0.40928-5.258c-0.22515-2.8919-0.41107-7.3459-0.41318-9.8979l-6e-3 -4.64h-14.566l-0.41159-41.44c-0.22637-22.792-0.57894-43.672-0.78355-46.4l-0.37197-4.96h-8.8268v-24.96h-18.56v-15.52c0-8.536-0.19008-19.624-0.41952-24.64l-0.41721-9.12 19.46-6e-3c10.703 0 20.972-0.1872 22.82-0.40915l3.36-0.40359v-28.474l20-0.38585c11-0.21223 37.208-0.5625 58.24-0.77837l38.24-0.39245v12.835l43.36-0.28076c23.848-0.15444 46.709-0.39239 50.802-0.52884l7.442-0.24806 0.3954 28.256c0.2175 15.541 0.5769 52.232 0.7986 81.536l0.403 53.28-22.001 0.093c-12.1 0.051-23.008 0.1502-24.24 0.2203-1.232 0.07-16.496 0.1771-33.92 0.238-17.424 0.061-33.497 0.2914-35.718 0.5122l-4.0381 0.4012 0.37287 30.788c0.20505 16.933 0.54329 36.374 0.75155 43.202l0.37869 12.414 26.733-0.7472v4.338c0 2.3859 0.19027 8.3052 0.42279 13.154l0.42284 8.8159 26.937-0.2347c26.588-0.2317 26.937-0.2182 26.941 1.0453 0.01 1.2667 0.3767 1.2782 36 1.1155 19.798-0.091 36.053-0.091 36.121 0 0.069 0.09 0.2847 13.412 0.48 29.604l0.3551 29.44 54.08 0.3339v11.833c0 9.0267 0.1896 11.839 0.7999 11.858 0.4401 0.014 6.4784 0 13.419-0.024l12.619-0.048 0.1812 7.2235 0.1812 7.2234 26.374 0.3454 0.4128 4.8839c0.2271 2.6861 0.4129 10.456 0.4129 17.267v12.383h-42.88c-40.39 0-42.883-0.065-42.937-1.12zm89.017-16.022c0-9.5225-0.1748-17.769-0.3885-18.326-0.337-0.8784-2.1555-1.0124-13.739-1.0124h-13.351l-0.181-7.2-0.1809-7.2-26.56-0.346-0.01-5.587c0-3.0728-0.1893-8.395-0.4166-11.827l-0.4131-6.24h-53.427l-0.3786-12.32c-0.2082-6.776-0.4883-19.731-0.6225-28.789l-0.2439-16.469 34.312-0.1745c18.872-0.096 91.337-0.2485 161.03-0.3388l126.72-0.1643-0.1415 21.288c-0.078 11.708-0.3285 41.52-0.5571 66.248l-0.4158 44.96-85.523 0.023c-47.038 0.013-94.523 0.1955-105.52 0.406l-20 0.3827v-17.314zm-1056.9-17.523c-0.21507-16.31-0.56837-43.407-0.78511-60.215l-0.39406-30.56 62.948-0.063c34.622-0.035 63.812-0.1337 64.868-0.2195 1.056-0.086 13.224-0.2011 27.04-0.2564l25.12-0.1008v-21.704l11.68-0.1962c6.424-0.1079 26.512-0.2688 44.64-0.3575 18.128-0.089 37.064-0.3416 42.08-0.5619l9.12-0.4005 3e-3 13.69c1e-3 7.5296 0.19008 17.794 0.41955 22.81l0.41721 9.12h39.915l0.42192 18.72c0.23206 10.296 0.42246 22.528 0.42311 27.182l1e-3 8.4619-8.8 0.1781-8.8 0.178-0.17903 8.1485-0.17903 8.1484-15.181 0.1716-15.181 0.1715-0.18589 5.28-0.18588 5.28-2.2141 0.08c-1.2178 0.044-3.0781 0.152-4.1341 0.24s-9.552 0.196-18.88 0.24l-16.96 0.08v14.72l-27.04 0.055c-14.872 0.03-28.768 0.1376-30.88 0.2386s-43.19 0.3893-91.283 0.6405l-87.443 0.4568-0.39104-29.655zm1826.6 27.91c-0.088-0.078-22.912-0.3262-50.72-0.5513s-52.144-0.5367-54.08-0.6925c-1.936-0.1557-27.568-0.4412-56.96-0.6344-48.96-0.3218-69.678-0.7146-70.328-1.3332-0.1362-0.1297 0.083-15.58 0.4862-34.335 0.4036-18.754 0.731-36.945 0.7276-40.424l-0.01-6.3245 56.8 0.4499c31.24 0.2474 57.952 0.5562 59.36 0.686 1.408 0.1299 25.744 0.4325 54.08 0.6725 28.336 0.2399 52.24 0.5085 53.12 0.5968 0.88 0.088 7.432 0.1973 14.56 0.2422l12.96 0.082-0.01 8.16c-0.01 7.887-1.4315 48.873-2.2848 65.64l-0.4174 8.2001-8.5661-0.1464c-4.7113-0.081-8.6381-0.2103-8.7263-0.2885zm-525.15-4.6115-30.267-0.1662 0.045-63.194c0.025-34.757 0.2231-67.013 0.4401-71.682l0.3946-8.4883 67.586 0.1668c37.173 0.092 85.271 0.2439 106.89 0.3381l39.3 0.1713-0.422 26.71c-0.2321 14.691-0.6096 35.587-0.839 46.436l-0.4171 19.726-35.261-0.096c-19.393-0.053-35.587-0.073-35.986-0.045-0.5184 0.036-0.8604 7.2671-1.1998 25.371l-0.4748 25.32-39.76-0.2005c-21.868-0.1102-53.38-0.2753-70.027-0.3667zm900.67-5.9138-30.08-0.32v-7.04l-31.092-0.3428 0.4472-21.749 0.4472-21.748-2.8211-0.083c-1.5515-0.046-3.685-0.1589-4.741-0.2514-1.056-0.092-8.0722-0.199-15.592-0.2368l-13.672-0.068 0.4727-21.76 0.4727-21.76-9.2011-0.098c-5.0605-0.054-9.489-0.1644-9.841-0.2462-0.352-0.082-4.4843-0.1819-9.1829-0.2226l-8.5429-0.074 0.391-24.48c0.215-13.464 0.565-33.5 0.7776-44.525l0.3868-20.045 34.965 0.3687c46.876 0.4942 80.981 1.0449 81.248 1.3117 0.1202 0.1202-0.1111 20.433-0.514 45.139-0.403 24.706-0.6418 45.005-0.5308 45.108 0.111 0.1032 18.634 0.3946 41.162 0.6478 22.528 0.253 41.054 0.5452 41.168 0.6492 0.2527 0.2294-1.001 65.942-1.5543 81.465l-0.3949 11.079-17.05-0.1991c-9.3773-0.1094-30.586-0.343-47.13-0.519zm-1871.3-46.036c-0.22162-7.7683-0.58361-20.46-0.80442-28.204l-0.40148-14.08h-40.014l-0.41302-14.88c-0.99474-35.838-3.396-215.28-2.8873-215.76 0.15239-0.143 24.397-0.4715 53.877-0.7299l53.6-0.4701-0.0157 14.64c-0.0257 23.94 1.3572 141.18 1.692 143.46l0.30899 2.0995 26.687-0.3434c14.678-0.1889 33.919-0.4937 42.757-0.6773l16.07-0.3338 0.47319 36.018c0.26026 19.81 0.6236 36.262 0.80742 36.561 0.18382 0.2988 14.521 0.332 31.86 0.074l31.526-0.4697 0.38982 12.726c0.21447 6.9995 0.56935 19.278 0.78868 27.286l0.39878 14.56-12.071 0.043c-6.6392 0.024-13.223 0.1363-14.631 0.2495s-22.576 0.383-47.04 0.5995c-24.464 0.2166-53.552 0.5348-64.64 0.7072-11.088 0.1725-33.155 0.4789-49.037 0.681l-28.877 0.3675-0.40294-14.124zm382.32-12.204v-8.96h-36.341l-0.43104-12c-0.23705-6.6-0.54112-12.344-0.67558-12.764-0.18157-0.5673-2.4654-0.6677-8.861-0.3894l-8.6164 0.3748-0.36588-3.4505c-0.78951-7.445-2.3095-108.97-1.6378-109.39 0.3662-0.2264 7.277-0.4789 15.357-0.5611l14.692-0.1496v19.93h12.8l0.0879 7.2c0.0486 3.96 0.26439 15.408 0.48 25.44l0.39213 18.24 17.026-0.2476 17.026-0.2475 0.40896 15.928c0.22489 8.7602 0.59673 28.096 0.82637 42.968l0.41747 27.04h-22.586zm1266.5-13.098c-0.1191-0.1091-23.689-0.413-52.377-0.6753s-52.88-0.5584-53.76-0.6582c-0.88-0.1-2.5643-0.2053-3.7428-0.2347l-2.1429-0.053 0.3675-3.68c0.2021-2.024 0.7163-26.953 1.1427-55.397l0.7753-51.717 27.88 0.4129c15.334 0.2271 41.992 0.4599 59.24 0.5172l31.36 0.1042 0.1695-19.413 0.1695-19.413 52.781 0.349 0.4494-19.481c0.2471-10.715 0.3282-19.842 0.1801-20.282-0.1889-0.5611-1.9956-0.8-6.0494-0.8h-5.7801v-5.8371l11.84 0.2619 0.394-22.652c0.2167-12.459 0.4327-29.217 0.48-37.241l0.086-14.588 17.868 0.1884c9.8272 0.1037 18.022 0.3433 18.211 0.5325s0.086 19.613-0.2286 43.164c-0.3143 23.551-0.4281 43.052-0.2528 43.336 0.1753 0.2836 6.1887 0.5157 13.363 0.5157 7.1745 0 13.201 0.2527 13.392 0.5616s0.162 15.501-0.064 33.76l-0.4113 33.198h-36.596l-0.3912 23.68c-0.2152 13.024-0.6092 33.428-0.8755 45.343l-0.4843 21.663-45.609-0.4239-0.4326 2.8691c-0.2378 1.5781-0.4538 7.2717-0.48 12.652l-0.047 9.7832-20.103-0.073c-11.057-0.04-20.201-0.1625-20.32-0.2717zm-158.7-1.8833c-0.2398-0.2038-70.874-1.0132-88.704-1.0164h-9.7482l0.3248-15.2c0.1787-8.36 0.4941-21.91 0.7008-30.112l0.376-14.911 35.927 0.3655c19.76 0.2011 39.239 0.4989 43.287 0.6619s17.872 0.3502 30.72 0.4159c12.848 0.066 25.491 0.2395 28.096 0.3859l4.7357 0.2662-0.4259 20.264c-0.2342 11.145-0.6083 24.518-0.8312 29.718l-0.4053 9.454-21.908-0.045c-12.05-0.024-22.015-0.1348-22.144-0.2451zm-108.92-1.424c-0.063-0.055-26.178-0.3075-58.034-0.5613-31.856-0.2537-57.965-0.5-58.02-0.5472-0.1233-0.1061 0.9491-77.137 1.4626-105.05l0.3767-20.48 17.61 0.2081c9.6855 0.1145 17.837-0.029 18.115-0.32 0.2778-0.2905 0.6854-25.584 0.906-56.208 0.2205-30.624 0.5328-56.544 0.694-57.6l0.2931-1.92 22.241 0.2115c12.233 0.1163 39.521 0.4043 60.641 0.64l38.4 0.4285v28.8l28.8 0.3915c15.84 0.2154 46.906 0.6115 69.035 0.8803l40.235 0.4887-0.4784 32.08c-0.2631 17.644-0.6568 40.096-0.8748 49.893l-0.3966 17.813-12.538-0.076-12.538-0.077-0.4207 12.984c-0.2313 7.1408-0.4253 18.023-0.431 24.183-0.01 6.16-0.1911 11.875-0.4119 12.699-0.3958 1.4786-0.4901 1.4942-6.8712 1.1366-6.73-0.377-95.256-1.3558-122.63-1.3558h-15.68l-0.4391 16c-0.2416 8.8-0.6343 22.712-0.8728 30.916l-0.4335 14.916-3.8136-0.189c-2.0975-0.104-3.8648-0.2339-3.9273-0.2888zm-120.16-1.095c-0.1525-0.1332-23.585-0.4296-52.072-0.6586-28.487-0.229-51.891-0.5132-52.01-0.6314-0.1182-0.1183 0.074-25.531 0.427-56.472 0.3531-30.941 0.6454-59.112 0.6495-62.6l0.01-6.3433 31.2 0.4213c17.16 0.2318 41.11 0.4223 53.222 0.4234h22.022l-0.4405 32.8c-0.6948 51.73-1.6635 92.236-2.2191 92.791-0.2805 0.2805-0.6347 0.401-0.7873 0.2678zm-1106.8-17.156c-0.36884-3.036-1.7811-67.855-1.4849-68.151 0.10002-0.1 9.0972-0.2516 19.994-0.3368 10.897-0.085 22.323-0.2614 25.392-0.3917l5.5804-0.2367-0.40169-20.66-0.40169-20.66 17.221-0.4075c9.4717-0.2241 36.398-0.5948 59.836-0.8236l42.615-0.416 0.84537 56.097c0.46496 30.853 0.72832 56.203 0.58516 56.333-0.14311 0.1302-16.676 0.4176-36.74 0.6387s-45.984 0.5423-57.6 0.7137c-11.616 0.1713-33.266 0.4855-48.111 0.6981l-26.991 0.3866zm-486.16-33.484v-16.34h17.92v-27.495l27.2-0.3454 0.36192-14.4 16.779-0.095c9.2285-0.052 17.355-0.1241 18.059-0.16 1.213-0.062 1.2892-0.576 1.4566-9.8184l0.17663-9.7531 54.687-0.3337-0.25018-18.24h40.04l0.42496 39.465c0.23372 21.706 0.42495 47.043 0.42495 56.305v16.84l-24.8 0.1748c-13.64 0.096-53.528 0.2555-88.64 0.3543l-63.84 0.1794zm875.42 8.5584-0.2173-1.5379-26.72 0.2525c-14.696 0.1389-26.759 0.1389-26.807 0-0.048-0.1389-0.26368-6.0125-0.48-13.052l-0.39335-12.8-27.045 0.4736-0.40007-37.037c-0.22003-20.37-0.54233-38.953-0.71628-41.295l-0.31623-4.2585 6.5587-0.3621c3.6074-0.1991 28.447-0.514 55.199-0.6999 26.752-0.1859 74.296-0.5284 105.65-0.7611l57.014-0.4231 0.4249 27.462c0.7322 47.311 0.5562 83.915-0.4053 84.284-0.4575 0.1757-16.37 0.349-35.36 0.3853-18.99 0.036-50.558 0.2555-70.151 0.4871l-35.623 0.4212zm144.53-29.218c-0.233-16.104-0.424-39.25-0.4244-51.436v-22.156l2.4-0.3968c1.32-0.2181 66.023-0.3998 143.78-0.4037l141.38-0.01-0.4245 30.825c-0.2334 16.954-0.4245 35.386-0.4245 40.96v10.135h-35.84v21.76h-250.03l-0.4236-29.28zm-840.34-0.3294c-0.20604-8.1788-0.52646-28.623-0.71204-45.431l-0.33743-30.56 9.1207-0.1072c5.0164-0.059 9.8407-0.1548 10.721-0.2128s3.8259-0.1539 6.5464-0.2128l4.9464-0.1072-0.40919-18.233-0.40919-18.233 54.925-0.3339-0.16717-7.2-0.16716-7.2h21.631l0.38968 14.88c0.42907 16.384 1.6043 126.13 1.3539 126.42-0.18762 0.2215-29.592 0.649-74.329 1.0807l-32.729 0.3158zm1179 8.0055-49.76-0.1639v-82.039l89.12 0.4621c49.016 0.2542 89.328 0.5827 89.582 0.73 0.4896 0.2839 0.079 53.495-0.5493 71.123l-0.3715 10.428-39.131-0.1883c-21.522-0.1035-61.523-0.262-88.891-0.3521zm-1458.4-41.973v-37.536l117.44-0.3267-0.22068-19.971-0.22067-19.971 4.7007-0.1893 4.7007-0.1892-0.50768-57.92 43.774-0.086c24.076-0.047 52.846-0.2633 63.934-0.48l20.16-0.3942-0.17279-43.84c-0.095-24.112-0.34836-53.516-0.56296-65.342l-0.39018-21.502 58.483-0.42157c32.166-0.23187 68.596-0.60637 80.956-0.83222l22.473-0.41064 0.41035 34.174c0.2257 18.796 0.59196 47.926 0.81392 64.734l0.40356 30.56h-30.893v44.131l-23.36 0.3489-0.1809 7.1931-0.1809 7.193-54.038 0.3339-0.16988 18.032-0.16989 18.032-5.2701 0.2383c-2.8986 0.1311-19.069 0.3092-35.935 0.3957-16.866 0.086-30.906 0.306-31.2 0.4878s-0.5348 4.3424-0.5348 9.2459v8.9153l-54.702 0.3338 0.21119 9.6883 0.21119 9.6884-18.14 0.1035c-9.9769 0.057-18.375 0.3389-18.663 0.6265-0.28764 0.2877-0.4317 3.5657-0.32013 7.2847l0.20286 6.7617-13.407 0.064c-7.3738 0.035-13.531 0.188-13.683 0.3398-0.15181 0.1518-0.22534 6.3346-0.1634 13.74l0.11263 13.464-7.8696 0.01c-4.3283 0.01-30.406 0.1931-57.95 0.4196l-50.08 0.4113zm2583.4 30.137v-7.2003l-18.4-0.1698-18.4-0.1699v-25.58l-42.72-0.086c-23.496-0.047-44.736-0.1685-47.2-0.2688-2.464-0.1004-27.52-0.2754-55.68-0.3888-28.16-0.1135-64.52-0.2889-80.8-0.3898l-29.6-0.1834v-34.728l72.96 0.8796 0.092-4.0174c0.051-2.2095 0.1839-6.1773 0.2968-8.8173s0.2157-5.0543 0.2284-5.365c0.014-0.3207 5.3518-0.3933 12.343-0.168 6.776 0.2184 41.552 0.4727 77.28 0.565 35.728 0.092 70.792 0.2516 77.92 0.3537l12.96 0.1857v17.869h76.8v74.88l-38.08 6e-4zm-2085.1-33.525c-0.78192-42.092-1.6373-104.69-1.6438-120.29l-6e-3 -15.419 48.16-0.4244c26.488-0.2335 56.689-0.6102 67.114-0.8374l18.954-0.4128 0.41514 28.096c1.1722 79.333 1.7854 129.64 1.5827 129.83-0.52456 0.5027-23.998 0.9856-63.266 1.3014-23.056 0.1855-48.437 0.5116-56.402 0.7247l-14.482 0.3875zm1524.2-0.075-26.488-0.1744 0.4006-10.713c0.2203-5.892 0.5894-28.485 0.8203-50.206l0.4199-39.493 46.971 0.7883 0.4188-5.3812c0.2304-2.9597 0.4206-13.183 0.4227-22.719l0.01-17.338-14.88-0.4207c-8.184-0.2314-18.84-0.4214-23.68-0.4222h-8.8v12.16h-7.04v-12.16h-7.5788c-4.1684 0-11.512-0.1887-16.32-0.4192l-8.7412-0.4193v-41.402h14.526l0.4554-15.108c0.2505-8.3095 0.3321-15.232 0.1814-15.382-0.1508-0.15072-10.392-0.45434-22.758-0.67475l-22.484-0.40064v-21.554h-3.7417c-2.0579 0-6.3779-0.18712-9.6-0.41583l-5.8583-0.41584v-8.825l19.08 0.82351 0.249-6.9434c0.1371-3.8189 0.06-7.1772-0.1715-7.463-0.2313-0.28578-10.441-0.69199-22.687-0.90269l-22.267-0.38308 0.4166-12.857c0.2291-7.0715 0.4174-15.953 0.4183-19.737v-6.88h44.8l0.01-4c0-2.2 0.1915-5.9797 0.42-8.3993l0.4154-4.3993 33.34 0.40275c18.337 0.2215 42.34 0.58062 53.34 0.79803l20 0.39529v10.722h8.8558c4.8708 0 17.156 0.19142 27.302 0.42537l18.446 0.42537-0.4409 31.811-0.441 31.811 2.0193 0.40385c1.1106 0.22212 12.999 0.40371 26.419 0.40354l24.4-3e-4 -0.2097 26.56-0.2097 26.56h37.859v32.64h-38.192l-0.423 24.48c-0.2326 13.464-0.423 30.24-0.423 37.28v12.8h-11.842v8.96l11.2 0.3698 6e-4 36.75-53.121-0.3735v7.5468c0 4.1506-0.1906 12.947-0.4212 19.547l-0.4194 12-18.939-0.1527c-10.416-0.084-30.859-0.2313-45.427-0.3272zm215.12-1.2864-29.613-0.1664 0.1733-34.714 0.1734-34.714-26.88-0.3434 0.5648-60.18 0.5647-60.181 1.6753 0.30765c0.9214 0.16921 21.403 0.39974 45.515 0.51225l43.84 0.20461 0.1745-11.68 0.1744-11.68 20.306 9e-3c11.168 6e-3 20.983 0.19002 21.811 0.41165l1.5052 0.40294-0.2146 28.868c-0.2111 28.415-0.1945 28.869 1.0549 28.934 0.6982 0.036 10.917 0.1077 22.709 0.1598l21.44 0.095-0.1508 25.12c-0.083 13.816-0.3332 40.448-0.556 59.181l-0.4053 34.061-72.598-0.8077-0.4229 12.103c-0.2326 6.6567-0.4238 14.935-0.4248 18.396v6.2933l-10.4-0.2133c-5.72-0.1173-23.726-0.2882-40.013-0.3797zm-536.66-17.203c-0.115-0.1151-14.878-0.2764-32.807-0.3586-17.929-0.082-42.886-0.2448-55.46-0.3613l-22.863-0.2119-0.1774-9.0896-0.1774-9.0895-57.28-0.3332v-41.809c0-22.995 0.1903-49.632 0.4229-59.193l0.4228-17.384h12.594c6.9265 0 19.48 0.188 27.897 0.4177l15.304 0.4178-0.4338 43.114 28.377 0.4244c15.607 0.2334 35.606 0.4247 44.441 0.4251h16.064l0.4158-5.8583c0.2287-3.222 0.4158-13.06 0.4158-21.862v-16.004l27.974 0.4494c15.386 0.2473 28.048 0.5229 28.137 0.6127 0.2428 0.2429-1.0102 103.98-1.4649 121.26l-0.3925 14.923-15.6-0.1426c-8.5802-0.079-15.694-0.2368-15.81-0.3518zm-1066.3-7.9943c-0.4145-6.8073-1.8828-110.01-1.5696-110.33 0.28403-0.2835 93.291-1.594 113-1.5923h16.16v24.96h8.8224l0.37216 11.04c0.20474 6.072 0.53574 26.488 0.73568 45.368l0.36339 34.328-13.627 0.3862c-7.4947 0.2124-31.195 0.5345-52.667 0.7159s-46.283 0.5063-55.135 0.7222l-16.095 0.3924-0.36514-5.9966zm-634.65-57.517v-48h5.76v96h-5.76zm7.68-18.24v-66.24h35.68c19.624-6e-4 45.832-0.1913 58.24-0.4238l22.56-0.4227v92.949l-4.32 0.1893-4.32 0.1892-0.33824 40h-53.751l-53.751-9e-4zm2538.9 57.28v-8.96l-12-0.1171c-6.6-0.064-12.837-0.057-13.861 0.016l-1.8608 0.1332 0.4187-10.096c0.2303-5.5529 0.4197-23.293 0.4209-39.423v-29.327l22.88 0.336c12.584 0.1847 35.48 0.35 50.88 0.3672l28 0.031v96h-74.88v-8.96zm-1141.3 6.5577-86.88-0.1623v-154.88h117.58l0.4036-3.36c0.222-1.848 0.4061-11.687 0.4092-21.864l0.01-18.504 29.28 0.42361c16.104 0.23298 34.104 0.42395 40 0.42437 9.1486 6.4e-4 10.72 0.14287 10.72 0.97028 0 0.84811 2.3845 0.9483 19.04 0.8l19.04-0.16952 0.1934-3.36 0.1935-3.36h19.773v2.48c0 2.1951 0.2022 2.5197 1.76 2.8254 0.968 0.18995 17.888 0.36951 37.6 0.399 19.712 0.0295 41.842 0.2423 49.178 0.47289l13.338 0.41926-0.3884 45.822c-0.2136 25.202-0.56 52.518-0.7697 60.702l-0.3812 14.88h-12.248c-6.7367-4e-4 -25.902-0.192-42.589-0.4258l-30.341-0.4252 0.4326-21.289c0.2379-11.709 0.1993-21.433-0.086-21.609-0.2851-0.1762-13.779-0.5279-29.987-0.7815l-29.468-0.4612-0.4252 18.44c-0.234 10.142-0.4253 32.46-0.4253 49.594 0 17.134-0.1899 35.967-0.4219 41.85l-0.4218 10.696-18.618-0.1939c-10.24-0.1065-57.714-0.2668-105.5-0.3561zm-285.98-1.9177c-0.033-0.968-0.1043-2.624-0.16-3.68l-0.1011-1.92-107.04 0.2514-0.4603-63.166c-0.2532-34.741-0.6482-71.806-0.8777-82.366l-0.4174-19.2-68.589 0.47757-0.42477-30.319c-0.23367-16.675-0.42515-35.258-0.42554-41.294v-10.976l7.84-0.37031c4.312-0.20367 35.369-0.54555 69.016-0.75974l61.176-0.38943 0.4245 20.32c0.2335 11.176 0.4245 24.15 0.4245 28.832v8.5124l181.75-0.80326 0.1659 32.585 0.1659 32.585 54.72 0.33376v59.734c0 32.853-0.1878 62.802-0.4173 66.553l-0.4172 6.8196h-196.29l-0.059-1.76zm1392-13.864c-0.1857-0.1856-30.13-0.4068-66.544-0.4913-36.413-0.084-69.481-0.2559-73.483-0.3807l-7.2768-0.227 0.2368-50.679 0.2369-50.679-45.44-0.3354v-58.545l-45.307-0.33658 0.4687-27.992c0.2578-15.395 0.5546-28.078 0.6596-28.184 0.105-0.10605 38.695 0.1128 85.756 0.48633 47.061 0.37352 85.83 0.51528 86.154 0.31502 0.3428-0.21184 0.5891-10.949 0.5891-25.677v-25.313l34.828 0.23115c19.155 0.12713 35.007 0.41115 35.227 0.63114s0.4602 1.8036 0.5338 3.5192l0.1339 3.1192 103.36 0.32757v180.62l-103.47-0.9007-0.4235 20.694c-0.2329 11.382-0.4239 29.407-0.4245 40.055v19.36l-1.44 0.01c-0.792 0.01-2.0233 0.1654-2.7363 0.357-0.7129 0.1916-1.4482 0.1964-1.6339 0.011zm-542.97-48.516c-22.87-0.3137-41.594-0.6265-41.609-0.6951-0.015-0.069 0.2076-19.391 0.4946-42.938 0.2871-23.547 0.3723-43.203 0.1893-43.68-0.2689-0.7008-3.7668-0.86701-18.244-0.86701h-17.911l0.1311-21.92 0.131-21.92-30.4-0.34317v-28.777l22.56 2e-3c12.408 1e-3 27.096 0.19027 32.64 0.4202l10.08 0.41807v10.743l-18.88-0.38319-0.182 6.1434-0.182 6.1434 5.302 0.41272c2.9161 0.22699 7.246 0.41444 9.622 0.41656l4.32 4e-3v21.571l22.43 0.33786c12.336 0.18585 22.569 0.4768 22.739 0.64646 0.1697 0.16967 0.1113 6.2431-0.1297 13.497l-0.4384 13.188-14.201 0.36007-0.1681 22.487-0.1681 22.488 32.73 0.944-0.1284 5.8405-0.1284 5.8404h10.743l0.184-5.92 0.1841-5.92h5.8959c3.2428 0 13.024 0.1909 21.736 0.4225l15.84 0.421v10.618c0 5.8396-0.1902 15.154-0.4202 20.698l-0.418 10.08-16.38-0.1048c-9.0089-0.058-35.092-0.3616-57.962-0.6752zm-85.22-0.9796-23.762-0.1757 0.2535-25.432c0.1394-13.988 0.4264-33.325 0.6377-42.972l0.3843-17.54 13.844 0.41805c7.6145 0.22995 22.284 0.41882 32.6 0.41965h18.756l-0.3718 33.12c-0.2046 18.216-0.5389 37.512-0.7429 42.88l-0.3711 9.76-8.7326-0.152c-4.8029-0.084-19.426-0.2311-32.495-0.3277zm-111.92-30.276c-17.248-0.2353-32.152-0.4676-33.12-0.5162l-1.76-0.088v-21.556l-14.503-0.4221c-7.9769-0.2322-21.128-0.4221-29.224-0.4221h-14.72l0.4239-24.105c0.2331-13.258 0.4238-30.826 0.4238-39.04v-14.935h25.6v-10.137c0-5.5752 0.1902-16.245 0.4228-23.71l0.4227-13.573 16.754 0.20389 0.3923-23.272c0.2157-12.799 0.4317-24.672 0.48-26.383l0.088-3.1108 16.343 0.2308c13.774 0.19453 16.434 0.0847 16.918-0.69863 0.316-0.51119 0.4185-1.1819 0.2278-1.4905-0.1985-0.32112 19.254-0.36128 45.482-0.0939l45.829 0.46719v-16.833h12.818l-0.865 47.36h10.946c6.8992 0 11.098 0.24648 11.358 0.66671 0.2267 0.3667 0.2022 9.4554-0.054 20.197l-0.4665 19.53-21.896-0.24579-0.1708 16.406-0.1708 16.406h30.742v8.16c0 4.488-0.1895 13.957-0.4191 21.042l-0.4173 12.882-30.312-0.66605-0.4248 15.555c-0.2338 8.5554-0.4249 21.7-0.4249 29.211v13.656l-27.68-0.1238c-15.224-0.068-41.792-0.3163-59.04-0.5517zm-1771.2-90.205c0-79.787 0.11121-90.24 0.96-90.24 0.81569 0 0.96 1.6356 0.96 10.88v10.88h38.4v122.24h-34.56v36.48h-5.76zm126.08 42.116c0-26.233-0.17689-55.344-0.39309-64.691l-0.39308-16.996 62.633-0.22247c34.448-0.12236 62.732-0.1683 62.852-0.10209 0.19985 0.1099 1.2266 128.32 1.0306 128.7-0.0467 0.09-28.355 0.3539-62.907 0.5855l-62.822 0.4212zm291.63 20.181c-0.23325-14.023-0.42448-31.571-0.42496-38.996l-6.4e-4 -13.499 10.662-0.42054c5.8642-0.23123 21.488-0.4608 34.72-0.51014 13.232-0.0493 30.106-0.26535 37.498-0.48l13.44-0.39034-0.22988-5.2634-0.22989-5.2634 10.15-0.17664 10.15-0.17658-0.23516-14.56c-0.21931-13.578-0.15898-14.56 0.89497-14.56 1.0595 0 1.1087-1.0173 0.78727-16.29l-0.34286-16.29 7.2158-0.37957-0.22638-14.195 21.553-0.42163c11.854-0.2319 26.8-0.4221 33.212-0.42267l11.659-1e-3 0.18096 7.1651 0.18096 7.1651 7.1498-0.33333 0.42442 32.202c0.23343 17.711 0.42474 38.566 0.42512 46.345s0.18363 16.308 0.40722 18.953l0.40653 4.8092 43.78-0.64672 0.42132 9.2108c0.23174 5.0659 0.4224 16.025 0.42368 24.353v15.143l-5.28 0.3514c-2.904 0.1933-48.912 0.7939-102.24 1.3346-53.328 0.5408-105.77 1.1538-116.54 1.3623l-19.575 0.379-0.42409-25.496zm245.97 4.1038c0-9.944-0.19091-21.343-0.42067-25.331l-0.41779-7.2504-43.854 0.42093-0.3559-4.8c-0.19574-2.64-0.53458-25.392-0.75297-50.56-0.2184-25.168-0.62976-46.006-0.91415-46.306-0.28439-0.30028-1.9852-0.44428-3.7795-0.32l-3.2624 0.22595 4e-4 -17.659c2.2e-4 -9.7124-0.18825-21.592-0.41882-26.4l-0.41922-8.7412h10.629l-0.34684-14.72-0.34685-14.72h36.343v-9.4177l3.9339-0.41117c2.1636-0.22614 6.1956-0.41117 8.96-0.41117h5.0261v5.9778c0 3.2878 0.18861 10.76 0.41914 16.605l0.41914 10.627-7.3803 0.38979 0.10336 20.48c0.057 11.264 0.32723 20.704 0.60077 20.978 0.27353 0.27376 4.795 0.41776 10.048 0.32l9.5503-0.17774-0.046-22.08h29.166v-3.859l19.039 0.16953c18.556 0.16521 19.039 0.20202 19.04 1.4495 6.4e-4 1.2474 0.48403 1.2843 18.959 1.4494l18.959 0.1694 0.39321 11.351c0.21626 6.2428 0.57856 31.151 0.80512 55.351l0.41191 44h-5.2876v14.4c0 11.045-0.18636 14.421-0.8 14.491-0.44 0.0499-10.592 0.2658-22.56 0.48l-21.76 0.38938 0.25446 25.334 0.25446 25.334-24.199 0.4255c-13.31 0.2341-31.352 0.4256-40.095 0.4256h-15.895v-18.08zm-621.59-74.456-0.1632-62.024-38.08-0.33905v-129.19l92.16-0.1036v25.631h26.838l0.36192 14.4h28.8l0.1699-18.038 0.16989-18.038 6.5501-0.21918c3.6026-0.12055 18.492-0.29738 33.087-0.39297 14.596-0.0956 26.692-0.32835 26.88-0.51727 0.18846-0.18891 0.23609-8.3831 0.10585-18.209l-0.23681-17.866 28.077-0.0276c15.442-0.0152 30.418-0.18421 33.279-0.37564l5.2019-0.34806 0.40988 26.136c0.68726 43.823 1.7946 164.78 1.511 165.06-0.14649 0.14648-36.963 0.48345-81.815 0.74882l-81.549 0.48257 0.5222 94.4h-14.076c-7.7419 0-26.218 0.19085-41.058 0.42413l-26.982 0.4241zm1221.7 48.914c-0.231-5.3359-0.4199-20.069-0.4199-32.739v-23.038l-181.76 0.71894v-8.1c-6e-4 -4.455-0.191-16.951-0.4231-27.77l-0.4219-19.67 36.366-0.34028-0.166-131.5 28.326-0.34408-0.2162-18.08-0.2164-18.08 5.6564-7e-3c3.1109-4e-3 19.843-0.19214 37.182-0.41894l31.526-0.41236-0.1658 32.899-0.1659 32.899-1.6 0.0969c-0.88 0.0533-4.127 0.12531-7.2155 0.16l-5.6155 0.063 0.351 21.44 77.76 0.32991v61.43h15.325l0.1775 9.12 0.1776 9.12 18.24 0.35514v17.885l33.76 6.4e-4c18.568 4.8e-4 45.208 0.19129 59.2 0.42403l25.44 0.42315v31.795c0 17.487-0.1887 35.728-0.4192 40.536l-0.4193 8.7412h-117.56v21.76h-52.28l-0.42-9.7018zm47.58-35.098c0-0.352-0.288-0.64-0.6399-0.64-0.352 0-0.64 0.288-0.64 0.64s0.288 0.64 0.64 0.64c0.3519 0 0.6399-0.288 0.6399-0.64zm899.84 25.566c-21.296-0.23226-44.984-0.46362-52.64-0.51418l-13.92-0.0918v-21.666c0-11.916 0.1815-23.402 0.4033-25.524l0.4032-3.8582 9.4236 0.33401c5.6979 0.20196 9.5733 0.0917 9.8024-0.27896 0.2083-0.33714 0.5841-20.119 0.835-43.959l0.4563-43.346 18.036 0.194 0.3875-22.308c0.213-12.269 0.268-22.524 0.1221-22.788-0.1458-0.264-2.9841-0.48-6.3073-0.48h-6.0423l-8e-4 -27.2 50.708 0.52109c27.89 0.28661 50.742 0.57461 50.784 0.64 0.042 0.0654-0.1413 22.439-0.407 49.719s-0.6922 74.728-0.9477 105.44l-0.4645 55.84-10.956-0.12589c-6.0259-0.0692-28.38-0.31584-49.676-0.54809zm-1302.5-22.745-0.18438-6.3414-37.12 0.14592c-20.416 0.0803-45.797 0.32013-56.402 0.53306l-19.282 0.38713-0.47001-49.813c-0.25856-27.397-0.65363-52.828-0.87795-56.513l-0.40794-6.7-19.043 0.19992c-15.935 0.1673-18.988 0.0566-18.706-0.67831 0.18534-0.48303-0.0294-1.3096-0.47712-1.8368-0.6994-0.82349-3.6778-0.92591-21.134-0.72676l-20.32 0.23181v3.7062l-29.12 0.34403 0.38426 22.08h-16.704v-38.4h7.04v-10.4c0-5.72-0.19155-14.106-0.42252-18.635l-0.41997-8.235-19.466 0.523-0.46707-19.43c-0.2569-10.687-0.36691-19.518-0.24442-19.626 0.21818-0.19115 26.19-0.59039 90.783-1.3955 17.776-0.22159 32.536-0.52754 32.8-0.67991s0.48-2.5341 0.48-5.2928v-5.0158l26.88-0.93601v-4.1622l9.12-0.3886c5.016-0.21373 32.52-0.5736 61.12-0.79971l52-0.4111 0.0884 13.362c0.0486 7.3493 0.26464 26.322 0.48 42.162l0.39162 28.8 9.28 0.37608v10.692c0 5.8806 0.31302 39.298 0.69862 74.26 0.38567 34.962 0.58087 63.688 0.43379 63.835-0.14707 0.14707-7.0744 0.45913-15.394 0.69344l-15.127 0.42604-0.18439-6.3415zm-491.6-13.948c-0.22942-7.0805-0.41787-18.121-0.41879-24.535l-2e-3 -11.661 16.96-0.35715 0.17548-10.72 0.17547-10.72h4.0645c2.2355 0 4.9645-0.18 6.0645-0.4l2-0.4v-24.622l3.36-0.40358c1.848-0.22197 9.048-0.40609 16-0.40915l12.64-6e-3v7.04h54.4v9.8166c0 5.3991 0.18994 16.343 0.42209 24.32 0.39665 13.629 0.35353 14.503-0.71538 14.503-1.0643 0-1.1212 0.94575-0.88399 14.704l0.25349 14.704-19.876 0.35104-0.18467 5.2052-0.18468 5.2052-26.375 0.38541c-14.506 0.21197-35.619 0.49466-46.917 0.62829l-20.541 0.24288zm1101.4-7.649c0.269-0.7011-4.3726-0.93205-25.725-1.28-14.329-0.23349-32.774-0.42454-40.988-0.42454h-14.935v-39.474l-18.344-0.42302c-10.089-0.23267-36.729-0.42303-59.2-0.42303h-40.856v-17.92h-18.56v-18.56h-15.36v-67.2h8.32v-43.52h7.04l0.1471-5.92c0.081-3.256 0.059-8.0448-0.049-10.642-0.1077-2.5969-0.026-5.3992 0.1819-6.2273l0.3779-1.5056 27.182-0.3454 0.051-1.6c0.027-0.88 0.1-1.96 0.16-2.4 0.083-0.61034 3.2109-0.8 13.192-0.8 9.774 0 13.208-0.2023 13.579-0.8 0.2735-0.44 0.6126-4.472 0.7535-8.96l0.2563-8.16h74.729v-3.2h90.24v-7.04h27.066l-0.4679 29.12-0.468 29.12 8.2147 0.068c4.5182 0.0374 8.6468 0.13216 9.1748 0.21053 0.528 0.0784 4.704 0.19158 9.28 0.25156l8.32 0.10907v32.321l18.366 0.35591-0.2229 14.542-0.2229 14.542 22.25 0.35096-0.4048 2.9538c-0.2227 1.6246-0.4049 13.714-0.4049 26.865v23.911h-2.5213c-2.4517 0-2.527-0.0664-2.72-2.4l-0.1987-2.4h-25.6l-0.1651 38.23-0.165 38.23-5.275-0.23969c-2.9011-0.13183-5.7789-0.27137-6.3949-0.31007-0.8683-0.0546-1.12-0.64578-1.12-2.6304v-2.56h-23.68v7.04h-17.58c-14.409 0-17.521-0.15431-17.252-0.85546zm133.55-0.26138-5.92-0.21119v-28.752h-4.4714l0.3114-42.56-18.88-0.35422v-12.943c0-7.1186 0.1918-19.244 0.4244-26.944l0.4228-14.001 52.591 0.4829 0.3898-7.5575 10.045 0.41663c5.5248 0.22915 12.783 0.41759 16.129 0.41876l6.0839 2e-3 -0.02 34.24 11.999 0.37014-0.3926 2.3749c-0.216 1.3062-0.3958 12.671-0.3997 25.255l-7e-4 22.88h-17.079l-0.4206 10.662c-0.2312 5.8642-0.4205 16.52-0.4205 23.68v13.018l-22.24-0.13283c-12.232-0.0731-24.904-0.22786-28.16-0.34401zm-60.315-33.283c0-18.216 0.1881-35.064 0.4125-37.44l0.408-4.32h21.334l-0.078 4.8 26.645 0.34623-0.4048 42.534 4.16 0.4011v26.799h-52.48l0.01-33.12zm531.52 24.144c-16.896-0.21052-30.765-0.43695-30.82-0.50318-0.055-0.0662 0.061-14.473 0.2574-32.015l0.3573-31.895-16.897-0.42383c-9.2935-0.23312-21.577-0.42443-27.297-0.42515l-10.4-1e-3v-10.713l-17.44-0.39915c-9.592-0.21952-34.46-0.58312-55.263-0.80799l-37.823-0.40884-0.4103 2.4843c-0.2257 1.3663-0.4135 5.1483-0.4174 8.4043l-0.01 5.92-14.88-1e-3c-8.184-6.4e-4 -22.909-0.19188-32.723-0.42489l-17.843-0.42365 0.4004-18.295c0.2202-10.062 0.5863-32.522 0.8136-49.91l0.4132-31.614 54.539 0.5089 0.3442-29.19 10.134 0.44537c7.2558 0.31887 10.261 0.24067 10.58-0.27531 0.2449-0.39638 0.7116-13.469 1.0369-29.05 1.0315-49.403 1.8796-83.758 2.2674-91.85l0.3757-7.84h-6.4982l0.01-4c0-2.2 0.1899-6.8169 0.4178-10.26l0.4145-6.2598 3.9023 0.29613c3.98 0.30204 93.064 1.3197 116.86 1.335l13.12 8e-3 0.1958-3.4276 0.1957-3.4276 53.884 0.4719c29.636 0.25954 54.316 0.55591 54.844 0.6586 0.528 0.1027 6.2389 0.20875 12.691 0.23568l11.731 0.049-0.3416 1.76c-0.188 0.968-0.505 17.312-0.7046 36.32s-0.5203 36.595-0.7128 39.083l-0.3499 4.5227-63.118-0.5719-0.4312 33.843c-0.2372 18.614-0.488 40.323-0.5575 48.243l-0.1261 14.4 18.275 0.35536-0.1774 3.3423-0.1775 3.3423 14.08 0.64 0.344 29.12h12.136v41.565l-18.24 0.35514-0.3908 26.56c-0.2149 14.608-0.4309 34.264-0.48 43.68l-0.092 17.12-4.64-0.13682c-2.552-0.0752-18.464-0.30906-35.36-0.51957zm-1834.1-56.063c-0.22595-20.021-0.59723-63.075-0.82506-95.678l-0.41425-59.277 64.541-0.47897c35.497-0.26344 65.491-0.56728 66.652-0.6752l2.1113-0.19623 0.0854 4.9119c0.047 2.7015 0.26297 11.68 0.48 19.952l0.39459 15.04 12.48 0.36635 0.0868 8.4568c0.0477 4.6513 0.26376 17.673 0.48 28.937l0.39316 20.48 7.7965 0.3758 0.42035 15.812c0.2312 8.6967 0.42098 24.486 0.42174 35.088l1e-3 19.276-2.4 0.3967c-1.32 0.21818-4.056 0.39986-6.08 0.40373l-3.6799 7e-3v21.59l-44.32 0.40682c-24.376 0.22375-56.446 0.58632-71.267 0.8057l-26.947 0.39889zm2077.3 29.165c-29.568-0.2306-62.365-0.46129-72.883-0.51263l-19.123-0.0934 0.4062-39.2c0.2234-21.56 0.586-51.08 0.8057-65.6l0.3995-26.4h-11.127l0.4016-50.88-26.747-0.34654 0.2535-25.427 0.2536-25.427-34.303-0.34102 0.3661-9.4295c0.2013-5.1862 0.6459-22.101 0.9878-37.589 0.342-15.488 0.81-32.161 1.04-37.051l0.4182-8.8914 26.486 0.33185c25.095 0.31442 26.518 0.27102 27.106-0.82657 0.341-0.63713 0.62-4.7856 0.62-9.2189v-8.0605l23.2 0.33486c12.76 0.18417 41.474 0.49064 63.809 0.68106 22.335 0.19041 40.702 0.43911 40.816 0.55266 0.1135 0.11356-0.077 24.943-0.4242 55.177-0.3468 30.234-0.7028 70.523-0.7909 89.531l-0.1602 34.56 7.6301 0.64 0.1791 8.16 0.1792 8.16 22.861 0.12002c12.574 0.066 23.725 0.13801 24.781 0.16l1.92 0.04-0.01 13.92c-0.01 7.656-0.076 40.848-0.16 73.76l-0.153 59.84-12.64-0.12736c-6.952-0.07-36.832-0.31604-66.4-0.54665zm-1832.1-26.31-0.17757-9.0643-54.01 0.30199-0.19506-3.4067-0.19507-3.4067-33.6 0.112v-12.914c0-7.1026-0.18923-17.712-0.4205-23.576l-0.42051-10.662h-8.119v-26.151c0-14.383-0.18315-27.487-0.40699-29.12l-0.40699-2.9693h-11.812l-0.407-2.9693c-0.22384-1.6331-0.40699-10.273-0.40699-19.2v-16.231h26.88v-14.72l19.36-0.0413c10.648-0.0227 20.8-0.1479 22.56-0.27814 1.76-0.13025 22.237-0.41416 45.505-0.63094l42.305-0.39413 0.41454 3.9662c0.228 2.1814 0.41543 9.4679 0.41651 16.192 1e-3 6.7244 0.19177 17.23 0.42377 23.346l0.42181 11.12 70.832-0.94603v9.8327c0 5.408 0.19052 15.66 0.42124 22.783l0.41959 12.95-36.361 0.34028 0.15367 14.533 0.15366 14.533-9.9073 0.37361 0.21936 20 0.21937 20-19.099 0.0854c-10.505 0.047-25.867 0.26297-34.139 0.48l-15.04 0.3946 0.11782 7.2 0.11781 7.2h-5.6405zm406.45-6.3864c-0.0493-6.4622-0.26534-21.397-0.48-33.189l-0.39034-21.44-8.5047-0.3754-0.38202-11.012c-0.21004-6.0568-0.47084-24.6-0.57952-41.206l-0.19763-30.194 4.8319-0.25078c2.6575-0.13793 19.232-0.30401 36.832-0.36906 17.6-0.065 38.408-0.30409 46.24-0.53119l14.24-0.41292v25.152h55.04v16h27.312l0.4242 26.985c0.2333 14.842 0.4242 39.135 0.4242 53.984v27l-85.92 0.45789c-47.256 0.25184-86.568 0.61406-87.36 0.80492l-1.44 0.34702zm-940.55-63.696c0.12883-42.151 0.3339-53.603 0.96366-53.813 0.63577-0.2119 0.8 10.78 0.8 53.547 0 47.498-0.11309 53.813-0.96366 53.813-0.85183 0-0.94466-6.2136-0.8-53.547zm2520.2 50.115v-3.4316l-4-0.38891c-2.2-0.2139-18.527-0.40491-36.283-0.42447-17.756-0.0196-32.389-0.14191-32.519-0.27188-0.13-0.12997-0.029-21.717 0.2231-47.971l0.4594-47.735 26.999-0.34487 0.1735-12.64 0.1736-12.64h99.131l0.1809-7.2c0.1-3.96 0.397-7.128 0.661-7.04s7.824 0.16 16.8 0.16h16.32v35.84l1.44 0.0812c0.792 0.0447 3.6 0.11665 6.24 0.16l4.8 0.0788 0.1636 53.6 0.1637 53.6h-101.13zm-788.03-16.897-21.63-0.16855 0.4365-19.031c0.2401-10.467 0.4834-19.093 0.5406-19.169 0.058-0.0757 9.8102 0.0426 21.673 0.26272l21.569 0.40027v14.953l32.454 0.3756c17.85 0.20659 32.682 0.23499 32.96 0.0631 0.2781-0.17187 0.5056-3.3195 0.5056-6.9947v-6.6822l10.72 3e-3c5.896 1e-3 14.824 0.19009 19.84 0.41955l9.12 0.41721v16.441h-14.72v16.803l-45.569-0.24137c-45.128-0.23903-45.572-0.22898-45.92 1.0386-0.3435 1.2521-0.8223 1.2763-21.981 1.1114zm48.99-24.311-24.48-0.17544v-15.345l-9.76-1e-3c-5.368-6.4e-4 -16.024-0.19073-23.68-0.42192l-13.92-0.42035v6.0629l-34.88-0.41907-0.3894 7.5467-5.8236-0.41337c-3.203-0.22764-19.459-0.41366-36.125-0.41366h-30.302v-29.44h-17.92v-30.72h55.04v-7.2031l31.52 0.39885c17.336 0.21937 47.736 0.58175 67.557 0.80529l36.037 0.40645-0.4384 5.025c-0.3483 3.9932-0.2572 5.0824 0.4434 5.3048 1.1143 0.35366 23.663 1.0019 35.261 1.0137l8.7791 9e-3 0.1809 7.2 0.181 7.2 20.984 0.16878c18.098 0.14557 21.035 0.30279 21.358 1.1435 0.2057 0.53612 0.1638 7.4234-0.093 15.305l-0.4672 14.33-41.461-0.74153v14.274l-6.56-0.15216c-3.608-0.0837-17.576-0.23112-31.04-0.32761zm-574.24-25.12v-8.96l5.28-0.063c2.904-0.0347 6-0.10669 6.88-0.16l1.6-0.0969v-69.12l-75.84 0.29654v-14.697h-65.28v-12.16h-56.775l-0.4722-48.687c-0.2596-26.778-0.3688-48.79-0.2427-48.916 0.1261-0.1261 11.241-0.43472 24.7-0.68581l24.47-0.45652 0.01 10.493c0.01 5.7711 0.1862 11.577 0.4051 12.901l0.398 2.4083 43.67-0.3366v-22.032l57.878-0.0716 0.3622 14.424 27.036 0.34498 0.3947 2.3875c0.2171 1.3131 0.3978 4.4755 0.4017 7.0275l0.01 4.64h80v-14.777l31.52 0.0967c17.336 0.0532 31.88 0.066 32.32 0.0285 0.5873-0.0501 0.8-1.9368 0.8-7.0958v-7.0275l27.84-0.34496 0.043-2.56c0.024-1.408 0.095-5.5512 0.16-9.2072l0.1173-6.6472 24.067 0.36748c13.237 0.20211 24.115 0.45734 24.173 0.56718 0.058 0.10983 0 29.072-0.1243 64.36l-0.2308 64.16h-69.645v17.92h-27.52v5.12h-27.52v24.32h-7.04v43.459l-8 0.38107-0.3838 7.36h-75.456v-8.96zm-1081.7-6.502-0.1815-7.258-27.2-0.34546v-60.106l23.36-0.34888-0.43628-43.2 29.018-0.0579c25.596-0.051 36.193-0.18901 37.818-0.49252 0.264-0.0493 0.48-3.2576 0.48-7.1296v-7.04l3.68-8e-3c2.024-4e-3 15.56-0.19355 30.08-0.42039l26.4-0.41244v5.4511c0 2.9981 0.18863 6.8273 0.41919 8.5094l0.41919 3.0583 35.447-0.90422 0.46272 21.544c0.2545 11.849 0.35205 21.655 0.21677 21.79-0.52627 0.52627-12.824 0.78697-40.005 0.84806l-28.32 0.0636v36.48l-26.08 0.0588c-14.344 0.0323-26.8 0.12025-27.68 0.19533-0.88 0.0751-4.12 0.19262-7.2 0.26119l-5.6 0.12466v17.877c0 16.493-0.0867 17.898-1.12 18.156-0.616 0.15346-6.2223 0.34295-12.458 0.42108l-11.338 0.14206zm2074.7-13.371c-20.064-0.23171-37.704-0.46301-39.2-0.514l-2.72-0.0927v-7.04h-18.124l0.4275-28.64c0.2352-15.752 0.6156-36.678 0.8454-46.503l0.4178-17.863 35.256 0.42104c19.391 0.23156 40.83 0.42199 47.642 0.42318l12.386 2e-3 -0.2257 25.44-0.2258 25.44 26.56 0.34597v49.254l-13.28-0.126c-7.304-0.0693-29.696-0.31558-49.76-0.54729zm-1110.3-1.4067c-0.2123-0.792-0.3899-4.392-0.3947-8l-0.01-6.56h-27.2c-21.291 0-27.217-0.1738-27.28-0.8-0.044-0.44-0.26-5.984-0.48-12.32l-0.4001-11.52-32.32 0.29812v-3.9891c0-2.194-0.1892-7.2201-0.4167-11.169l-0.4137-7.1802 16.513-0.35969 0.3526-20.16h59.43l0.3516 2.08c0.1933 1.144 0.4224 3.8915 0.509 6.1055l0.1573 4.0255 64.165-0.0734 0.3889 1.4512c0.2138 0.79815 0.3927 11.891 0.3975 24.651l0.01 23.2h-28.16v21.76h-12.405c-12.324 0-12.408-9e-3 -12.791-1.44zm730.67-15.658 0.1306-16.458-2.56-0.12365c-1.408-0.068-3.8007-0.15011-5.3172-0.18245l-2.7573-0.0588 0.1973-23.52 0.1972-23.52-4.0668-0.39415 0.2892-11.963c0.159-6.5796 0.4576-17.507 0.6633-24.283l0.3742-12.32h25.46v-4.32c0-2.376 0.1916-8.8862 0.423-14.467l0.4209-10.147 49.017 0.51083c26.959 0.28095 50.712 0.52098 52.783 0.5334l3.7659 0.0226-0.4343 20.174c-0.6794 31.556-1.631 87.771-1.6448 97.17l-0.013 8.516-20.8-0.39204-0.3975 14.4c-0.2185 7.92-0.4345 14.46-0.48 14.532-0.045 0.0728-12.322-0.0455-27.282-0.26301l-27.2-0.39544v3.406h-40.901l0.1306-16.458zm-36.189 1.2384-8.16-0.17912v-10.689l-37.6-0.41687c-20.68-0.22927-52-0.47974-69.6-0.5566l-32-0.13973-0.1943 3.3846-0.1943 3.3846-35.326-0.16894c-19.429-0.0929-39.03-0.26491-43.558-0.38221l-8.2325-0.21327 0.465-57.845-15.841-0.36069 0.3883-4.2997c0.2136-2.3648 0.4412-14.956 0.5059-27.98l0.1175-23.68-2.0503-0.32c-1.1277-0.176-2.0346-0.608-2.0154-0.96 0.019-0.352-1.3061-0.72943-2.945-0.83875l-2.9798-0.19874 0.4149-25.081c0.2281-13.795 0.5972-31.091 0.8202-38.437l0.4054-13.356 66.95 0.4192c36.822 0.23056 70.623 0.56926 75.112 0.75265 8.0789 0.33005 8.1673 0.31844 8.7079-1.1436 0.3004-0.81238 0.7349-7.093 0.9655-13.957s0.6038-16.296 0.8294-20.96c0.402-8.3114 0.4395-8.48 1.8869-8.48 1.408 0 1.4854 0.24588 1.6627 5.28l0.1858 5.28 32.32 0.38982c17.776 0.2144 36.712 0.4304 42.08 0.48l9.76 0.0902v10.88l14.08 0.08c7.744 0.044 14.368 0.152 14.72 0.24s2.6888 0.196 5.1929 0.24l4.5527 0.08-0.2327 8.8-0.2329 8.8 12.16 0.39656c6.688 0.21812 14.858 0.43412 18.155 0.48l5.9952 0.0834-0.4011 15.52c-0.2205 8.536-0.5758 21.208-0.7894 28.16l-0.3884 12.64h-8.6291l-0.4112 3.9339c-0.2261 2.1636-0.4112 8.6436-0.4112 14.4v10.466h-25.427l-0.3979 7.84c-0.2189 4.312-0.4609 16.048-0.5379 26.08l-0.14 18.24 4.4224 0.37748-0.417 47.303 4.6885 0.10082c2.5787 0.0555 5.0819 0.0819 5.5627 0.0588 0.6538-0.0315 0.7766 0.54826 0.4871 2.2992-0.213 1.2877-0.3903 5.0217-0.3942 8.2979l-0.01 5.9566-12.96-0.19662c-7.128-0.10814-16.632-0.27723-21.12-0.37575zm636.77-0.62889-22.91-0.16802 0.44-7.9204c0.4972-8.9471 0.7342-8.5208-4.8052-8.6412-1.5545-0.0338-2.9523-0.1875-3.1064-0.3416-0.1541-0.15409 0.04-23.554 0.4305-52 0.3909-28.446 0.7086-56.904 0.7062-63.24l-0.01-11.52h57.92l0.171-16.16 0.1709-16.16h149.74v58.24h8.96v78.793l-35.52-0.24279-0.1809 7.1211-0.181 7.1211-99.478 0.32784-0.1737 12.682-0.1736 12.682-14.546-0.20182c-8.0005-0.111-24.856-0.27743-37.457-0.36983zm-1837.3-13.33c-6.4e-4 -7.3601-0.19132-19.665-0.42323-27.345l-0.42165-13.963-90.463 0.92107-0.4254-20.362c-0.23397-11.199-0.4254-25.499-0.4254-31.777v-11.416l9.76-5e-3c14.026-7e-3 49.941-0.69654 50.851-0.97581 0.5844-0.17929 0.69726-3.9968 0.46675-15.788-0.16721-8.5532-0.42531-17.495-0.57354-19.871l-0.26952-4.32h16.176c8.8968 0 16.296-0.11922 16.443-0.26495 0.14667-0.14572 0.0919-6.6977-0.12166-14.56-0.21359-7.8623-0.34011-14.361-0.28116-14.441 0.0589-0.08 9.3919-0.1665 20.74-0.19216 11.348-0.0257 21.05-0.20699 21.561-0.40296 0.73195-0.28087 0.92854-1.8175 0.92854-7.2579v-6.9016l12.32-0.39423c6.776-0.21683 32.875-0.60829 57.997-0.86992l45.677-0.4757 0.56275 1.4817c0.30944 0.81492 0.56442 4.1269 0.56653 7.36 0 3.2331 0.1888 8.2543 0.41485 11.158l0.41101 5.28h33.73l6e-3 2.72c0 1.496 0.41741 15.68 0.92198 31.52 0.50452 15.84 1.0819 38.016 1.2829 49.28 0.20109 11.264 0.53517 24.008 0.74253 28.32l0.37696 7.84h20.801l0.35111 20.64c0.19309 11.352 0.30797 20.675 0.25529 20.718-0.18118 0.14726-19.299 0.86359-23.296 0.87285l-4.0019 9e-3v10.689l-32.16 0.41779c-17.688 0.22978-45.48 0.60348-61.76 0.83043l-29.6 0.41265v3.6498l-9.76 4e-3c-5.368 2e-3 -20.92 0.19199-34.56 0.42196l-24.8 0.41814-1e-3 -13.382zm-583.04 10.085c-0.42298-0.14116-0.63925-45.99-0.63925-135.52v-135.31h30.362c20.298 0 30.498-0.22027 30.773-0.66453 0.22589-0.36549 0.50492-11.764 0.62007-25.329s0.30734-24.752 0.42707-24.859c0.11974-0.10719 43.562-0.37843 96.538-0.60277 52.976-0.22434 101.07-0.54215 106.88-0.70624s38.64-0.46135 72.96-0.66057c34.32-0.19924 64.73-0.50578 67.579-0.68121l5.1786-0.31898 0.72801 5.3113c2.8315 20.657 8.2387 89.972 7.0984 90.993-0.14502 0.12991-10.857 0.37835-23.805 0.55209-12.948 0.17373-23.728 0.50194-23.955 0.72935-0.22741 0.2274-0.078 8.9776 0.33198 19.445 1.1108 28.36 2.3262 74.324 1.9746 74.675-0.16924 0.16925-15.415 0.37978-33.879 0.46786-18.464 0.0881-36.552 0.26278-40.196 0.38822l-6.6251 0.22808 0.45014 36.392-37.12 0.0106c-35.866 0.0102-70.091 0.52261-70.691 1.0584-0.16018 0.14295-0.30418 3.3449-0.32 7.1154l-0.0288 6.8554-30.72 0.1679c-16.896 0.0924-31.838 0.23635-33.204 0.32l-2.4838 0.1521 0.12071 21.585 0.1207 21.585-23.434 0.34916 0.44644 36.144-47.424 0.16816c-26.083 0.0925-47.712 0.0721-48.063-0.0452zm2611.6 7e-3c-0.9801-0.19016-1.0759-4.7407-1.2265-58.24l-0.1634-58.034-8.627-0.37819-0.1665-28.931-0.1665-28.931h-154.88l-0.171 16.184-0.1711 16.184-25.109-0.0928c-13.81-0.0511-26.089-0.24498-27.286-0.43093l-2.1772-0.33809 0.4557-25.193 0.4556-25.193-12.998-0.0289c-12.526-0.0278-27.489-0.53545-27.933-0.94762-0.3173-0.29461 1.1238-44.858 1.5783-48.807l0.3896-3.3834 97.447 0.36672 0.1935-3.36 0.1934-3.36h159.93l0.1324-2.08c0.073-1.144 0.1572-3.664 0.1876-5.6 0.031-1.936 0.1148-5.032 0.1876-6.88l0.1324-3.36h8.96v135.36c0 74.448-0.216 135.38-0.48 135.41-1.8906 0.18913-7.8228 0.23398-8.6901 0.0657zm-1806.5-28.429c0-5.4348-0.18899-14.247-0.4199-19.583l-0.41997-9.7018h-20.712l-0.42541-28.64c-0.23398-15.752-0.73651-42.128-1.1167-58.614-0.38023-16.486-0.59559-30.059-0.4786-30.163 0.70861-0.62868 19.515-1.0003 69.653-1.3764 31.152-0.23368 57.504-0.50028 58.56-0.59244 1.056-0.0922 6.168-0.19613 11.36-0.23105l9.44-0.0635v-17.92h7.9476c4.3712 0 8.4032-0.17481 8.96-0.38847 0.83699-0.32117 1.0124-1.5902 1.0124-7.3254v-6.9369l8.8-0.22166c4.84-0.12191 22.876-0.28669 40.08-0.36618 17.204-0.0795 31.532-0.30031 31.84-0.49074 0.3081-0.19043 0.5602-2.6113 0.5602-5.3797v-5.0335l5.28-0.23897c2.904-0.13143 15.144-0.30953 27.2-0.39577l21.92-0.15681v7.0941h23.04l0.08 3.36c0.044 1.848 0.2602 7.536 0.48 12.64l0.3996 9.28 36.8 0.33963 0.01 11.03c0.01 6.0666 0.1855 12.11 0.4037 13.43l0.3967 2.4h-15.711c-8.6413 0-16.167 0.17481-16.724 0.38847-0.8678 0.33303-1.0123 1.9317-1.0123 11.2v10.812h-38.373l-0.347-25.28-27.481 0.17416c-15.114 0.0958-27.602 0.2957-27.751 0.44425-0.1485 0.14855 0.057 17.638 0.4563 38.866 0.3996 21.228 0.7965 43.55 0.882 49.606l0.1555 11.01-5.142 0.37904v20.161l-16.32-1e-3v24.32l-29.6 0.0303c-16.28 0.0166-30.896 0.1331-32.48 0.25873-1.584 0.12564-28.512 0.4079-59.84 0.62724s-60.2 0.56334-64.16 0.76443l-7.2 0.36562v-9.8814zm-517.86-5.6855c-0.0549-0.13167-0.27086-10.319-0.48-22.639l-0.38024-22.4-36.16 0.36804v-14.768h21.708c11.939 0 22.163-0.17475 22.72-0.38832 0.90327-0.34662 0.96657-2.3054 0.58946-18.24l-0.42247-17.852 6.3429-0.0686c3.4886-0.0377 7.2069-0.14426 8.2629-0.23676s16.176-0.21006 33.6-0.26123c17.424-0.0512 32.047-0.32602 32.496-0.61076 0.821-0.52104 0.74187-7.3391-0.88237-76.031l-0.42581-18.008 10.486-0.37954c5.7674-0.20874 30.502-0.53131 54.966-0.71682 51.134-0.38777 86.465-0.97989 87.292-1.463 0.32-0.18686 0.39715-3.3964 0.17498-7.2794l-0.39737-6.9452 7.825-2e-3c4.3038-1e-3 25.465-0.19224 47.025-0.42454l39.2-0.42235v1.9499c0 1.0724 0.42259 9.2555 0.93911 18.185 0.51651 8.9291 1.0205 20.699 1.12 26.155l0.18089 9.9197-42.88 0.64 0.1599 7.68c0.0879 4.224 0.3279 10.771 0.53322 14.549l0.37332 6.8689-32.426 0.3422 0.24218 20 0.24217 20-5.6822 1e-3c-15.87 4e-3 -55.015 0.85256-55.372 1.2001-0.22563 0.21914-0.10284 14.724 0.27288 32.232 0.37571 17.509 0.46472 32.053 0.19782 32.32-0.26691 0.26742-9.6057 0.63021-20.753 0.80621l-20.268 0.32 0.288 14.4-14.544 0.0322c-7.9992 0.0177-15.696 0.12937-17.104 0.24817-3.7034 0.31247-128.94 1.2043-129.06 0.91905zm1137.6-68.551c0.2348-28.948 0.617-64.084 0.8493-78.08l0.4223-25.448h57.392v4.4115c0 3.4323 0.2247 4.4978 1.0124 4.8 0.5568 0.21366 5.1648 0.38847 10.24 0.38847h9.2276v16h18.725l-0.3935 3.04c-0.2164 1.672-0.416 16-0.4436 31.84l-0.051 28.8 3.2412 0.19345c2.3132 0.13806 3.2411 0.4587 3.2411 1.12 0 0.56165 0.6302 0.92655 1.6 0.92655h1.6v54.4h-14.08v7.04h-44.8c-35.373 0-44.816 0.16834-44.876 0.8-0.042 0.44-0.029 1.16 0.028 1.6 0.061 0.46866-0.614 0.8-1.6295 0.8h-1.7335l0.4271-52.632zm-221.02-38.248v-7.04h-27.478l-0.181-7.2-0.1809-7.2-27.84-0.34496v-28.775h-37.093l-0.347-25.28-22.72-0.34954-0.063-1.7452c-0.035-0.95988-0.1067-2.4652-0.16-3.3452l-0.097-1.6-25.92-0.022c-14.256-0.0121-28.152 0.0827-30.88 0.21056l-4.96 0.23254v10.779l-29.92 4e-3c-16.456 2e-3 -32.236 0.18417-35.067 0.40459l-5.1469 0.40076-0.78887-27.994c-0.76857-27.272-1.8801-51.592-2.3809-52.092-0.13664-0.13663-8.0353-0.19552-17.552-0.13087-16.297 0.11069-17.304 0.0503-17.302-1.0374 8e-3 -5.4484-3.6786-47.666-4.8458-55.487-0.51968-3.4827-0.86643-6.4028-0.77043-6.4892 1.103-0.99258 124.59-1.8988 258.73-1.8988h84.48l0.4293 8c0.902 16.81 1.8167 39.332 2.2223 54.72 0.2759 10.468 0.6649 16.163 1.125 16.47 0.3869 0.25861 19.344 0.47461 42.128 0.48l41.424 0.01 0.1755 10.72 0.1754 10.72 46.4 0.33597v14.004c0 12.179 0.132 14.054 1.0124 14.392 0.5568 0.21366 8.0448 0.38847 16.64 0.38847h15.628v45.811l-51.52-0.0512-0.1774 9.1076-0.1776 9.1076-27.805 0.34487-0.092 3.52c-0.051 1.936-0.1226 5.0293-0.16 6.874l-0.068 3.354-63.68 0.33195-0.362 14.4h-74.838v-7.04zm657.44 0.15034-18.72-0.16967 0.036-8.7903c0.02-4.8347 0.4177-17.718 0.8837-28.63 0.4661-10.912 0.6657-20.02 0.4436-20.24-0.4619-0.45718-17.976-1.1824-28.814-1.1932l-7.2908-7e-3 0.3316-8.6905c0.2346-6.1469 0.1207-8.7542-0.3892-8.9084-1.4392-0.43505-15.697-0.94934-26.481-0.95519l-11.04-6e-3v-10.88h-25.431l0.6496-14.72-8.7293-0.08c-4.8011-0.044-9.0173-0.152-9.3693-0.24s-6.688-0.196-14.08-0.24l-13.44-0.08-0.015-3.68c-0.01-2.024 0.4782-10.829 1.0815-19.567 0.9527-13.799 0.9758-15.964 0.1754-16.47-0.5068-0.3207-6.7666-0.58749-13.91-0.59288l-12.989-0.01 0.3194-2.08c0.1758-1.144 0.4865-4.24 0.6906-6.88 0.9203-11.904 3.0877-31.121 4.3671-38.72l1.4008-8.32 27.529 0.24788c22.931 0.20648 27.645 0.0996 28.225-0.64 0.3832-0.48833 1.1726-3.3359 1.7542-6.3279 1.2453-6.4055 6.0925-22.829 8.0313-27.212 0.7457-1.686 1.185-3.2369 0.976-3.4465-0.4353-0.43674-41.012-1.1432-72.436-1.2612-11.704-0.044-21.28-0.23968-21.28-0.43497s0.8533-2.3604 1.8963-4.8112c6.4603-15.181 20.756-28.488 37.784-35.169l3.52-1.3811 67.52 0.69837c120.82 1.2496 181.77 1.9514 198.08 2.2804 8.8 0.17755 23.187 0.32619 31.97 0.33031l15.97 7e-3 -5.0904 3.3117c-6.9947 4.5507-15.917 13.617-20.034 20.357-2.8492 4.6649-8.4165 17.277-8.4165 19.066 0 0.94748 10.96 1.4179 33.12 1.4214 16.849 3e-3 20.64 0.16121 20.64 0.86312 0 0.47289-0.5638 2.4984-1.2528 4.5012s-2.2512 8.8878-3.4717 15.3c-2.7918 14.67-2.8674 15.158-2.3897 15.45 0.6574 0.40101 28.437 0.9765 66.954 1.387 20.064 0.21385 36.589 0.49366 36.723 0.6218 0.1337 0.12815-0.2182 4.0596-0.7821 8.7366-1.7431 14.459-2.5832 26.117-1.9291 26.771 0.3571 0.35717 16.778 0.74188 40.256 0.94313 38.417 0.32931 51.373 0.61584 51.905 1.148 0.1406 0.14051-0.076 6.4997-0.4818 14.132-0.4055 7.6318-0.6277 13.971-0.4938 14.088 0.5122 0.44493 46.437 1.0275 113.3 1.4372l69.532 0.42605 0.3851-6.6606c0.2118-3.6633 0.6026-10.117 0.8684-14.341l0.4834-7.68h52.584c28.921 0 52.723-0.144 52.893-0.32s0.776-8.096 1.3472-17.6 1.36-20.808 1.7529-25.12l0.7142-7.84h111.19v74.837l-13.76 0.3633 0.4656 17.6h-160.15v7.2137l-48.881-0.47396c-28.262-0.27404-49.028-0.2349-49.231 0.0928-0.1926 0.31171-0.5604 12.625-0.8172 27.362l-0.467 26.796-89.724-0.51059-0.1766 8.9669-0.1767 8.9669-54.367-0.47798v11.21l-19.36-0.40663c-10.648-0.22365-41.176-0.59662-67.84-0.82883l-48.48-0.42221-0.12 1.536c-0.066 0.84481-0.138 2.4-0.16 3.456l-0.04 1.92-11.84-0.0313c-6.512-0.0172-34.592-0.28887-62.4-0.60364s-52.72-0.58868-55.36-0.60868l-4.8-0.0363-0.3933 10.24c-0.2163 5.632-0.4323 10.462-0.48 10.733-0.079 0.44882-19.644 0.4426-70.967-0.0225zm-1114-42.387c-0.23264-3.2781-0.42304-8.9205-0.42304-12.539 0-7.4628-0.11763-7.6213-5.2244-7.0398-1.5266 0.17383-24.376 0.47857-50.776 0.67721s-51.629 0.53341-56.065 0.74395l-8.0651 0.38278-0.41489-2.0745c-0.2282-1.141-0.41534-4.8465-0.41587-8.2345-2e-3 -11.999-1.3047-32.98-2.0776-33.458-0.4089-0.25271-1.9085-0.35699-3.3324-0.23172s-23.757 0.42387-49.629 0.66358c-25.872 0.2397-47.297 0.59282-47.611 0.7847-0.31984 0.19559-0.38516 3.4009-0.14864 7.2952l0.42189 6.9463-8.1714 0.0208c-4.4942 0.0115-12.635 0.14966-18.091 0.30718s-24.483 0.43216-42.283 0.6103l-32.363 0.32389-0.78374-20.951c-1.1457-30.627-4.1001-76.015-5.009-76.951-0.40328-0.41554-4.728-0.40218-71.305 0.2202l-56.064 0.52411-0.44949-5.9722c-0.76526-10.168-3.5322-34.492-4.5741-40.212-0.54504-2.992-1.5959-7.7148-2.3352-10.495l-1.3442-5.0551-81.024 0.45687c-44.563 0.25127-81.689 0.61759-82.502 0.81403-1.0422 0.25183-1.3602 0.66419-1.0781 1.3982 0.22005 0.57257 0.84575 3.057 1.3904 5.521s1.1342 5.1219 1.3101 5.9065l0.31976 1.4265-42.259 0.17349c-23.242 0.0954-42.43 0.34508-42.64 0.55482-0.20959 0.20973-0.10345 3.2337 0.23588 6.72 0.33933 3.4863 0.74762 8.1387 0.90731 10.339l0.29035 4h-36.359v-67.2l77.6-0.036c42.68-0.0198 80.048-0.12423 83.04-0.23208 2.992-0.10786 24.736-0.27506 48.32-0.37157 23.584-0.0965 64.856-0.41634 91.716-0.71075l48.836-0.53528 4.2838 1.7052c4.3372 1.7264 7.8877 3.6434 12.932 6.9824l2.777 1.8381 15.407 0.0323c8.474 0.0177 31.103-0.16045 50.287-0.396 19.184-0.23554 53.168-0.6144 75.52-0.8419s46.976-0.55024 54.72-0.71721 30.208-0.45267 49.92-0.63489 43.616-0.50009 53.12-0.70639l17.28-0.37509 5.76 3.6197c3.168 1.9908 7.7274 5.5457 10.132 7.8996 5.534 5.4175 13.136 15.419 15.539 20.445 1.8102 3.7854 1.9141 3.876 4.9545 4.3199 1.708 0.24936 5.164 0.28611 7.68 0.0816 5.0484-0.41024 98.364-1.3591 134.1-1.3636l22.644-3e-3 2.1786 5.7194c1.1982 3.1457 2.6376 7.6097 3.1987 9.92 0.56102 2.3103 1.4698 4.5606 2.0194 5.0006 0.57818 0.46282 2.8257 0.8 5.3324 0.8h4.333l0.61882 2.4c2.5398 9.8507 5.6177 29.365 7.4106 46.985 0.81177 7.9775 1.6694 14.818 1.9057 15.2 0.29209 0.47262 5.9389 0.6954 17.626 0.6954h17.196l0.37888 3.36c0.4288 3.8021 2.6652 42.382 3.2183 55.52 0.20013 4.752 0.52589 11.001 0.72403 13.886l0.3602 5.2464-7.4693 0.38713 0.23719 7.182 0.23718 7.182-18.394 0.35608 0.47514 17.6-8.8776 0.0467c-4.8827 0.0257-10.462 0.14952-12.398 0.27525s-23.968 0.39405-48.96 0.59629c-24.992 0.20222-59.866 0.55621-77.497 0.78662l-32.057 0.41894-0.42311-5.9602zm759.9-7.3636v-8h-19.784l-0.188-4.64-0.1881-4.64-61.124-0.33242 0.8438-20.468-14.34-0.0781c-7.887-0.0429-15.348-0.11495-16.58-0.16l-2.24-0.0819v-28.16l-46.4-0.33597v-21.744h-84.008l0.4754-40 0.4755-40-2.1514-0.0109c-23.543-0.11981-175.21 0.15535-179.11 0.32495-2.992 0.12999-38.992 0.40414-80 0.60923-41.008 0.20508-80.68 0.55394-88.16 0.77525-8.6024 0.25451-13.6 0.1751-13.6-0.21612 0-1.3895-2.6835-15.447-3.4595-18.122l-0.83533-2.88h-27.773c-32.872 0-138.97 0.99976-139.5 1.3144-0.20064 0.12028-1.0153-1.8011-1.8104-4.2697-4.0841-12.681-16.644-29.545-23.349-31.35-1.9477-0.52447-32.133-0.35037-116.23 0.67041-62.481 0.75836-133.19 1.6118-157.12 1.8966l-43.52 0.51778-4.0445-3.7693c-5.7388-5.3484-16.534-10.464-32.116-15.22-2.0403-0.62271 19.45-1.203 60.8-1.6417 17.776-0.18859 65.296-0.76695 105.6-1.2852 122.41-1.5741 232.35-2.8436 302.08-3.4879 61.48-0.56808 89.159-0.79168 200-1.6157 83.492-0.6207 381.67-1.129 389.64-0.66428 7.7071 0.44943 8.1389 0.5443 7.2 1.5818-0.5494 0.60704-0.9989 1.8284-0.9989 2.7141 0 0.88572-0.576 2.1317-1.28 2.7688-0.8392 0.75954-1.28 1.9712-1.28 3.519v2.3606l9.76 0.38513c5.368 0.21182 28.768 0.39887 52 0.41566 66.087 0.0478 171.08 0.67159 182.6 1.085 9.6958 0.34787 10.336 0.44536 8.96 1.3634-11.635 7.7602-17.928 17.071-22.574 33.405-1.2475 4.3854-2.2683 8.3323-2.2683 8.771 0 0.43865 0.936 0.94005 2.08 1.1142s22.23 0.48935 46.858 0.7004c24.628 0.21105 44.881 0.4862 45.006 0.61143 0.1253 0.12524-0.6395 4.2151-1.6995 9.0886-1.0599 4.8735-2.4328 12.557-3.0508 17.075l-1.1236 8.2143-27.645-0.46295c-31.801-0.53257-28.609-1.2339-29.284 6.4342-0.9904 11.267-2.9396 40.337-3.1112 46.4l-0.1902 6.72 27.858 0.34501-0.3138 1.4275c-0.6146 2.7955-1.7004 37.767-1.187 38.233 0.3885 0.35311 28.976 1.1667 44.523 1.2671 1.2628 8e-3 1.4009 1.6124 0.7088 8.2334l-0.4111 3.9339-55.178 2e-3 0.2137-4.8906c0.1413-3.2351-0.038-5.0461-0.5298-5.35-1.0194-0.63001-8.4688-0.75648-9.3879-0.15938-0.5019 0.32601-0.8709 4.6498-1.1337 13.28-0.2142 7.0382-0.5566 16.886-0.7607 21.883l-0.3713 9.0865-2.3351-0.22479c-1.2843-0.12363-35.239-0.43204-75.455-0.68536l-73.12-0.46058v14.878h-15.36v-8zm807.54-80.037c-0.1297-0.12966-15.918-0.31639-35.086-0.41496-19.168-0.0986-40.345-0.26497-47.061-0.36978l-12.21-0.19057 0.2295-3.654c0.1262-2.0097 0.6747-8.3602 1.219-14.112 0.5442-5.752 0.8957-10.545 0.781-10.651-0.6049-0.558-14.764-0.94463-40.528-1.1067-15.84-0.0996-34.088-0.26673-40.552-0.37134l-11.752-0.1902 0.4381-4.2915c0.5015-4.9131 4.0053-27.917 4.5678-29.99 0.2688-0.99034 0.042-1.4747-0.8044-1.7209-0.6482-0.18841-19.898-0.50921-42.778-0.71289-38.929-0.34655-59.214-0.79625-59.748-1.3246-0.1252-0.12402 0.6456-3.915 1.7131-8.4244 1.5536-6.5633 5.1608-17.268 8.7161-25.867 0.6671-1.6136-3.1236-1.8516-29.491-1.8516-13.151 0-23.911-0.24477-23.911-0.54395 0-1.1444 7.537-12.449 11.307-16.959 7.3967-8.849 18.674-16.66 32.008-22.171 4.0571-1.6768 7.0728-3.2364 6.7015-3.4659-0.9472-0.5854-101.32-1.9284-267.62-3.5807-36.08-0.35848-67.184-0.92552-69.12-1.2601-4.7746-0.82512-39.591-1.2109-155.18-1.7193-95.749-0.42116-97.843-0.45648-95.139-1.605 1.5207-0.64589 6.6072-2.4581 11.303-4.0271 8.4485-2.8228 21.562-5.2541 35.179-6.5223 4.7471-0.4421 4.9335-0.5121 2.56-0.96074-4.2912-0.81113-274.22-1.187-411.2-0.57255-175.66 0.78791-379.11 2.6761-553.6 5.1379-23.76 0.33521-83.52 1.0544-132.8 1.5982-49.28 0.54379-93.2 1.1717-97.6 1.3954l-8 0.40663 10.468 1.7692c10.823 1.8292 24.449 4.8678 31.116 6.9388l3.824 1.1878-20.144 0.41829c-29.839 0.61961-147.71 1.3784-241.1 1.552l-82.08 0.15261v-29.489h2621.4v29.642l-253.57-0.52213-3.4692 3.7262c-1.9081 2.0494-4.462 5.6977-5.6755 8.1072-3.4553 6.8613-7.8471 20.687-9.1532 28.815l-1.1813 7.3514 1.9656 0.45053c1.0811 0.2478 22.375 0.47483 47.321 0.50453l45.355 0.054-0.3629 1.8147c-0.1996 0.99807-0.5621 5.8388-0.8056 10.757l-0.4426 8.9425 1.5304 0.40956c0.8418 0.22526 14.418 0.41349 30.17 0.4183l28.64 9e-3v49.154l-52.702-0.35451c-31.348-0.21087-52.848-0.1188-53.062 0.22724-0.1978 0.31996-0.5707 6.8565-0.8288 14.526l-0.4694 13.944-39.543-0.0887c-21.749-0.0488-39.649-0.19478-39.779-0.32443zm-2315.4-39.635v-37.432l44.48-0.33659 0.17548-10.72 0.17547-10.72 41.425-9e-3c22.783-5e-3 42.081-0.18451 42.882-0.39934 0.96701-0.25907 1.3522-0.74102 1.1441-1.4313-0.43265-1.4344-0.73296-12.085-0.35127-12.458 0.17009-0.16624 31.582-0.51398 69.804-0.77275l69.494-0.47049 1.1427 2.8102c5.468 13.447 9.6143 31.056 12.371 52.539l0.5503 4.2884-9.3264 0.20701c-5.1295 0.11386-32.078 0.30131-59.886 0.41656-27.808 0.11526-52.288 0.29528-54.4 0.40005-2.112 0.10476-26.16 0.22394-53.44 0.26484-27.28 0.0409-49.928 0.28595-50.329 0.54456-0.53153 0.34291-0.59038 3.4158-0.21737 11.35 0.28132 5.984 0.70333 17.288 0.93781 25.12l0.42632 14.24h-57.058zm2449.9-40.692c0-0.72811 0.7592-5.4889 1.6872-10.579 0.928-5.0906 1.5499-9.3929 1.3822-9.5606-0.6728-0.67286-12.926-0.88517-52.522-0.91003l-41.452-0.026 0.4281-1.76c0.2353-0.968 1.6931-4.7382 3.2394-8.3782 6.8967-16.234 13.084-24.196 24.944-32.099l5.0132-3.3406 42.56 0.38839c23.408 0.21362 74.888 0.38864 114.4 0.38893l71.84 5.5e-4v67.2h-171.52z" stroke-width=".64"/>
</svg>
